<svg xmlns="http://www.w3.org/2000/svg" xmlns:xlink="http://www.w3.org/1999/xlink" width="2029.385" height="984.68" xmlns:v="https://vecta.io/nano"><style><![CDATA[.B{stroke-linecap:round}.C{stroke-linejoin:round}.D{stroke-width:9.835}]]></style><defs><filter id="A" x="-.415" width="1.83" y="-1.083" height="3.166" color-interpolation-filters="sRGB"><feGaussianBlur stdDeviation="191.747"/></filter><clipPath id="B"><path d="M-2105.233 54.31h3320.539v3422.577h-3320.539z" opacity="1" fill="#000" fill-opacity="1" stroke="none" stroke-width="100.761" stroke-miterlimit="4" stroke-dasharray="none" class="B C"/></clipPath><path id="C" d="M-167.087 269.479c-6.335-.117-18.435.075-25.618 0s-12.809 6.136-12.809 12.809c0 0-.284 18.766 0 25.618s5.678 12.827 12.809 12.809h25.618c6.037-.032 12.809-6.381 12.809-12.809v-87.084"/></defs><g clip-path="url(#B)" transform="translate(1459.656 -54.31)"><rect width="1109" height="424.974" x="-999.464" y="153.822" ry=".031" fill="#039" paint-order="markers stroke fill" filter="url(#A)"/><g transform="matrix(.929541 0 0 .929541 -31.351647 178.40531)" stroke="#fff"><g fill="none" stroke-width="19.669" class="B"><path d="M-518.226 125.072v195.643l-182.102-215.619V83.58h41.476v237.135" class="C"/><path d="M-719.998 83.58v237.135M-518.226 83.58h0"/></g><g fill="none" class="C D"><path d="M-489.573 282.288s-.284 18.766 0 25.618 5.678 12.827 12.809 12.809h25.618c6.037-.032 12.809-6.381 12.809-12.809v-25.618c0-7.021-6.474-12.692-12.809-12.809s-18.435.075-25.618 0-12.809 6.136-12.809 12.809z"/><g class="B"><path d="M-415.347 269.479v12.809s-.284 18.766 0 25.618 6.3 12.801 12.809 12.809h25.618c6.849 0 12.809-6.381 12.809-12.809v-25.618c0-7.021-6.474-12.692-12.809-12.809m74.122 0c-6.335-.117-18.435.075-25.618 0s-12.809 6.136-12.809 12.809v38.427m74.294-25.618h25.618c6.037-.032 12.809-6.085 12.809-12.809s-6.474-12.692-12.809-12.809-18.435.075-25.618 0-12.809 6.136-12.809 12.809c0 6.038-.284 18.766 0 25.618s5.678 12.827 12.809 12.809"/><use xlink:href="#C"/><path d="M-92.86 269.479c-6.335-.117-18.435.075-25.618 0s-12.809 6.136-12.809 12.809c0 0-.284 18.766 0 25.618s5.678 12.827 12.809 12.809h25.618c6.037-.032 12.809-6.381 12.809-12.809v-87.084m22.991 48.657v12.809s-.284 18.766 0 25.618 6.3 12.801 12.809 12.809m23.061.003v-12.809s-.284-18.766 0-25.618 6.3-12.801 12.809-12.809h25.618c6.849 0 12.809 6.381 12.809 12.809v25.618c0 7.021-6.474 12.692-12.809 12.809"/></g></g><g fill="none" class="B C D"><path d="M-754.963 320.715v-99.893m-52.718 87.084c.284 6.852 5.678 12.827 12.809 12.809 1.521-.004-1.208.012.741 0 6.037-.039 12.809-6.381 12.809-12.809v-87.084"/><path d="M-846.107 320.676h25.618c7.206-.013 12.809-6.136 12.809-12.809V269.44m-22.63.039c-6.335-.117-18.435.075-25.618 0s-12.809 6.136-12.809 12.809v25.618c-.284 6.852-6.3 12.801-12.809 12.809h-25.618c-6.849 0-12.809-6.381-12.809-12.809v-25.618c0-7.021 6.474-12.692 12.809-12.809"/><path d="M-846.107 295.097h15.797m-64.032 0h0"/></g></g></g></svg>