<?xml version="1.0" encoding="UTF-8" standalone="no"?>
<svg
   xmlns:dc="http://purl.org/dc/elements/1.1/"
   xmlns:cc="http://creativecommons.org/ns#"
   xmlns:rdf="http://www.w3.org/1999/02/22-rdf-syntax-ns#"
   xmlns:svg="http://www.w3.org/2000/svg"
   xmlns="http://www.w3.org/2000/svg"
   id="svg7"
   viewBox="0 0 575.71911 483.40955"
   height="483.40955"
   width="575.71912"
   y="0"
   x="0"
   version="1.1">
  <title
     id="title824">Eye</title>
  <metadata
     id="metadata13">
    <rdf:RDF>
      <cc:Work
         rdf:about="">
        <dc:format>image/svg+xml</dc:format>
        <dc:type
           rdf:resource="http://purl.org/dc/dcmitype/StillImage" />
        <dc:title>Eye</dc:title>
        <cc:license
           rdf:resource="http://creativecommons.org/publicdomain/zero/1.0/" />
      </cc:Work>
      <cc:License
         rdf:about="http://creativecommons.org/publicdomain/zero/1.0/">
        <cc:permits
           rdf:resource="http://creativecommons.org/ns#Reproduction" />
        <cc:permits
           rdf:resource="http://creativecommons.org/ns#Distribution" />
        <cc:permits
           rdf:resource="http://creativecommons.org/ns#DerivativeWorks" />
      </cc:License>
    </rdf:RDF>
  </metadata>
  <defs
     id="defs11" />
  <path
     style="opacity:0.5;fill:none;stroke:#8ae234;stroke-width:1px;stroke-linecap:butt;stroke-linejoin:miter;stroke-opacity:1"
     d="m 196.95543,160.72544 c 59.38874,-31.87201 110.52322,-3.40669 156.10472,59.23422 l 28.43985,75.94989 -113.5,14.5 -110,-27 -7,-79.5 z"
     id="path863" />
  <path
     style="fill:#0b0b09"
     id="path861"
     d="m 496.4126,334.11335 c -12.522,-2.436 -25.04,-4.745 -34.437,-6.818 -1.107,-5.53 -2.373,-11.291 -3.814,-17.223 3.459,0.476 6.966,0.883 10.488,1.182 7.869,0.704 15.79,0.864 23.185,0.462 0.311,-0.023 0.603,-0.06 0.911,-0.08 6.548,8.563 13.081,17.195 19.893,25.758 -5.244,-1.114 -10.731,-2.21 -16.226,-3.281 m -17.458,41.175 c 5.935,3.347 11.823,6.767 16.972,10.09 -10.39,5.16 -21.093,9.624 -32.038,13.378 -3.137,-5.326 -7.071,-11.103 -11.126,-16.777 -5.105,-7.132 -10.397,-14.111 -14.541,-19.805 3.811,-1.383 7.249,-2.762 10.292,-4.083 1.243,0.782 2.566,1.587 4.025,2.446 7.212,4.232 16.879,9.384 26.416,14.751 m -61.023,34.939 c -0.396,-6.282 -1.783,-13.926 -3.454,-21.458 -1.447,-6.547 -3.105,-13.04 -4.51,-18.563 7.553,-1.604 14.406,-3.454 20.493,-5.385 5.128,5.657 12.009,12.769 18.658,20.1 4.467,4.927 8.818,9.939 12.404,14.621 -14.219,4.734 -28.815,8.291 -43.591,10.685 m -33.633,3.445 c -1.93,0.087 -3.861,0.137 -5.793,0.184 -0.466,-6.093 -1.787,-13.342 -3.376,-20.502 -1.415,-6.412 -3.033,-12.762 -4.421,-18.21 11.679,-0.526 22.404,-1.788 32.067,-3.52 2.207,5.475 4.814,11.916 7.206,18.457 2.626,7.152 4.974,14.419 6.165,20.434 -10.554,1.636 -21.191,2.702 -31.848,3.157 m -53.965,-2.3 c 0.058,-0.128 0.101,-0.24 0.162,-0.368 0.451,-0.948 0.673,-2.087 1.071,-3.308 0.337,-1.237 0.545,-2.593 0.85,-4.03 0.176,-1.438 0.425,-2.972 0.563,-4.549 0.116,-1.58 0.29,-3.223 0.329,-4.886 0.08,-1.666 0.132,-3.357 0.132,-5.045 0.057,-5.289 -0.153,-10.553 -0.366,-14.991 10.589,1.001 20.587,1.331 30.019,1.18 2.27,5.646 5.027,12.417 7.539,19.289 2.46,6.7 4.657,13.476 5.907,19.252 -15.45,0.286 -30.894,-0.61 -46.206,-2.544 m -39.731,-7.382 c 1.33,-2.808 2.699,-5.735 4.061,-8.659 1.692,-3.6 3.372,-7.198 5.025,-10.494 1.632,-3.318 3.251,-6.312 4.677,-8.813 0.741,-1.191 1.415,-2.375 2.014,-3.251 0.578,-0.811 1.015,-1.474 1.47,-2.088 6.011,1.087 11.88,1.984 17.591,2.673 1.064,4.639 2.365,10.381 3.334,16.19 0.286,1.618 0.522,3.237 0.727,4.837 0.247,1.602 0.353,3.173 0.515,4.702 0.136,1.529 0.157,3.004 0.235,4.419 -0.048,1.383 -0.016,2.731 -0.128,3.943 -0.172,1.195 -0.189,2.353 -0.455,3.301 -0.048,0.181 -0.082,0.343 -0.126,0.517 -13.105,-1.687 -26.109,-4.14 -38.94,-7.277 m -24.39,-6.83 c -1.207,-0.38 -2.404,-0.784 -3.606,-1.177 1.188,-2.425 2.436,-5.303 3.666,-8.43 1.225,-3.173 2.475,-6.589 3.602,-10.043 1.644,-4.958 3.132,-9.95 4.33,-14.358 6.373,1.6 12.952,3.184 19.792,4.742 1.634,0.367 3.226,0.678 4.839,1.016 -0.532,1.146 -1.003,2.334 -1.582,3.676 -1.127,2.883 -2.338,6.241 -3.49,9.834 -1.185,3.594 -2.325,7.423 -3.475,11.243 -0.97,3.243 -1.927,6.469 -2.869,9.548 -7.132,-1.813 -14.207,-3.833 -21.207,-6.051 m -29.462,-10.693 c 0.837,-1.782 1.681,-3.592 2.524,-5.396 1.692,-3.599 3.371,-7.2 5.023,-10.494 1.635,-3.317 3.252,-6.318 4.677,-8.815 0.742,-1.191 1.415,-2.377 2.014,-3.25 0.338,-0.471 0.624,-0.892 0.898,-1.285 4.97,1.399 10.097,2.784 15.391,4.161 -0.455,4.521 -1.12,9.779 -1.952,15.008 -0.544,3.526 -1.207,7.026 -1.887,10.301 -0.705,3.255 -1.464,6.273 -2.237,8.824 -8.252,-2.736 -16.408,-5.758 -24.451,-9.054 m -25.941,-11.73 c -3.558,-1.769 -7.083,-3.607 -10.585,-5.484 1.484,-2.398 3.059,-4.796 4.728,-7.132 4.167,-5.889 8.909,-11.402 13.327,-15.277 7.852,2.668 16.207,5.317 25.107,7.937 -0.508,1.107 -0.966,2.251 -1.524,3.543 -1.126,2.88 -2.338,6.238 -3.489,9.834 -1.185,3.594 -2.325,7.423 -3.474,11.247 -0.56,1.874 -1.12,3.749 -1.671,5.592 -7.578,-3.194 -15.059,-6.611 -22.419,-10.26 m -47.085,-27.886 c 0.559,-0.478 1.114,-0.962 1.68,-1.431 5.628,-4.661 11.557,-8.932 16.999,-12.241 8.626,3.703 18.123,7.426 28.575,11.134 -3.633,4.513 -7.013,9.844 -9.997,15.332 -1.423,2.613 -2.737,5.262 -3.95,7.887 -11.478,-6.294 -22.615,-13.183 -33.307,-20.681 m -4.019,-2.837 c -6.108,-4.451 -12.086,-9.091 -17.854,-13.96 5.003,-3.61 10.196,-6.767 14.9,-9.071 4.581,2.423 9.524,4.878 14.836,7.352 1.198,0.562 2.413,1.12 3.651,1.68 -0.591,0.484 -1.186,0.978 -1.781,1.486 -3.787,3.209 -7.589,6.762 -11.226,10.478 -0.736,0.757 -1.452,1.521 -2.17,2.285 -0.118,-0.083 -0.24,-0.165 -0.356,-0.25 m -16.637,22.028 c -1.088,1.792 -1.97,3.513 -2.685,5.062 -0.566,1.226 -0.969,2.324 -1.291,3.331 -6.983,-7.365 -13.287,-15.332 -18.83,-23.778 0.231,-0.327 0.44,-0.651 0.695,-0.985 3.498,-4.733 8.83,-10.042 14.824,-14.952 6.328,5.195 12.866,10.11 19.544,14.792 -4.974,5.74 -9.296,11.496 -12.257,16.53 m -34.534,-36.224 c -0.73,-1.667 -1.421,-3.348 -2.109,-5.031 2.98,-2.78 6.259,-5.53 9.679,-8.093 5.282,5.441 10.83,10.575 16.588,15.45 -5.391,5.662 -10.028,11.575 -12.959,16.725 -0.112,0.192 -0.194,0.368 -0.302,0.556 -4.059,-6.3 -7.703,-12.854 -10.897,-19.607 m -9.432996,-27.909 c -0.295,-1.403 -0.52,-2.823 -0.77,-4.233 0.42,-0.191 0.838,-0.364 1.257,-0.547 3.121996,4.393 6.488996,8.577 10.013996,12.577 1.081,1.23 2.2,2.414 3.31,3.607 -2.763,2.653 -5.388,5.418 -7.793,8.187 -2.474,-6.395 -4.59,-12.909 -6.017996,-19.591 m -13.949,-66.383 c 0.206,-4.993 10.311,-6.623 14.976996,-7.109 1.402,-0.148 2.334,-0.194 2.334,-0.194 l 1.893,0.296 c 0,0 0.522,0.722 1.131,1.836 1.582,2.906 3.755,8.571 -1.131,11.793 -6.759996,4.461 -19.475996,-0.13 -19.475996,-0.13 z m 15.598996,-73.37 c -0.37,-0.12 -0.74,-0.239 -1.108996,-0.358 1.420996,-0.824 2.838996,-1.655 4.252996,-2.463 4.874,-2.765 9.821,-5.391 14.733,-8.008 1.358,-0.716 2.729,-1.399 4.094,-2.095 0.098,0.046 0.19,0.106 0.288,0.15 1.395,0.646 2.795,1.297 4.192,1.948 -5.941,4.436 -11.605,8.897 -16.859,13.189 -1.516,-0.268 -3.009,-0.647 -4.517,-1.022 -1.679,-0.454 -3.429,-0.762 -5.075,-1.341 m 346.205,109.979 c 4.645,0.719 9.406,1.389 14.205,1.94 0.85,0.094 1.698,0.169 2.549,0.256 l 7.118,8.952 c 6.16,7.843 12.278,15.789 18.411,23.783 -6.373,-0.494 -13.016,-1.41 -19.602,-2.763 -4.684,-0.943 -9.306,-2.076 -13.793,-3.304 -2.496,-9.352 -5.434,-19.032 -8.888,-28.864 m -320.193,37.432 c 1.605,-0.949 3.18,-1.829 4.719,-2.62 0.348,-0.18 0.69,-0.351 1.032,-0.523 0.348,0.242 0.704,0.482 1.06,0.724 1.423,0.97 2.901,1.948 4.439,2.936 3.6,2.315 7.51,4.682 11.771,7.093 -3.929,2.814 -7.907,6.09 -11.69,9.622 -5.353,-4.694 -10.489,-9.602 -15.348,-14.747 1.345,-0.875 2.687,-1.7 4.017,-2.485 m -12.222,-17.442 c 3.291,3.084 7.222,6.419 11.908,9.941 -2.505,1.768 -5.033,3.722 -7.524,5.826 -1.046,-1.175 -2.107,-2.341 -3.123,-3.54 -2.827,-3.333 -5.497,-6.784 -8.005,-10.33 2.334,-0.758 4.61,-1.398 6.744,-1.897 m -13.757,-16.28 c 1.641,2.715 4.26,6.405 8.342,10.833 -1.563,0.678 -3.147,1.41 -4.747,2.213 -1.762,-2.791 -3.443,-5.622 -4.910996,-8.537 -0.639,-1.256 -1.231,-2.539 -1.794,-3.831 1.052,-0.244 2.091,-0.47 3.109996,-0.678 m 39.155,-133.661 c -1.911,1.313 -3.799,2.643 -5.672,3.982 -1.165,-0.279 -2.329,-0.56 -3.459,-0.934 0.906,-0.435 1.808,-0.888 2.717,-1.313 1.796,-0.869 3.6,-1.693 5.406,-2.522 0.334,0.265 0.671,0.53 1.008,0.787 m 158.105,43.904 10.15,3.996 -21.418,28.335 -10.677,-2.926 z m -100.905,24.705 c 0.513,-1.262 0.786,-1.934 0.786,-1.934 0,0 -0.094,0.719 -0.269,2.071 -0.18,1.338 -0.545,3.346 -0.555,5.809 -0.025,1.238 -0.175,2.565 0.01,4.059 0.189,1.478 0.049,3.068 0.445,4.735 0.32,1.664 0.503,3.442 1.133,5.23 0.254,0.896 0.514,1.819 0.782,2.761 0.364,0.911 0.734,1.841 1.116,2.79 0.186,0.474 0.375,0.95 0.566,1.434 0.239,0.461 0.485,0.927 0.731,1.396 0.494,0.932 1,1.881 1.51,2.848 1.252,1.811 2.298,3.802 3.827,5.573 1.341,1.886 3.059,3.564 4.7,5.347 1.845,1.603 3.551,3.399 5.613,4.89 3.956,3.145 8.477,5.849 13.313,8.062 4.839,2.174 9.929,4.094 15.239,5.151 5.272,1.117 10.667,1.89 15.998,1.824 5.315,-0.048 10.6,-0.35 15.579,-1.5 5.013,-0.974 9.72,-2.578 14.145,-4.259 2.133,-1.013 4.258,-1.927 6.253,-2.946 1.949,-1.095 3.913,-2.058 5.684,-3.175 1.758,-1.152 3.444,-2.259 5.045,-3.313 1.539,-1.166 2.997,-2.27 4.371,-3.31 1.427,-0.992 2.547,-2.162 3.713,-3.118 1.145,-0.988 2.196,-1.893 3.145,-2.711 3.534,-3.548 5.676,-5.559 5.676,-5.559 0,0 -1.469,2.482 -4.272,6.781 -1.596,1.978 -3.352,4.598 -5.805,7.215 -1.236,1.315 -2.551,2.709 -3.938,4.181 -1.499,1.36 -3.129,2.739 -4.817,4.214 -1.718,1.429 -3.66,2.728 -5.607,4.185 -2,1.371 -4.233,2.536 -6.458,3.877 -2.343,1.086 -4.709,2.359 -7.258,3.349 -2.551,0.982 -5.188,1.95 -7.964,2.608 -5.491,1.543 -11.393,2.421 -17.405,2.565 -6.026,0.279 -12.141,-0.546 -18.127,-1.772 -5.99,-1.266 -11.765,-3.452 -17.158,-6.131 -5.433,-2.624 -10.311,-6.122 -14.625,-9.907 -2.207,-1.84 -4.132,-3.945 -5.988,-5.991 -1.697,-2.204 -3.427,-4.284 -4.766,-6.575 -1.496,-2.174 -2.574,-4.53 -3.678,-6.738 -0.435,-1.165 -0.86,-2.307 -1.28,-3.428 -0.203,-0.56 -0.404,-1.115 -0.604,-1.664 -0.144,-0.57 -0.288,-1.131 -0.428,-1.689 -0.282,-1.106 -0.552,-2.193 -0.822,-3.253 -0.145,-1.085 -0.288,-2.141 -0.426,-3.172 -0.344,-2.045 -0.237,-4.031 -0.271,-5.857 0.086,-3.661 0.576,-6.8 1.28,-9.326 0.516,-2.567 1.391,-4.344 1.861,-5.627 m 235.39,26.444 c 5.756,6.458 11.423,13.032 17.042,19.723 l 7.265,8.858 c -4.627,-1.161 -9.167,-2.411 -13.554,-3.675 -3.191,-8.291 -6.763,-16.63 -10.753,-24.906 m -165.818,-61.489 c 2.692,-2.146 24.992,6.34 24.261,8.778 -0.732,2.438 -16.631,25.993 -20.481,27.7 -3.853,1.706 -22.044,-3.901 -22.664,-8.779 -0.62,-4.876 18.884,-27.699 18.884,-27.699 m -171.670996,93.548 c 0.568,0.256 1.191,0.537 1.81,0.818 -0.472,0.169 -0.949,0.352 -1.425,0.53 -0.145,-0.451 -0.255,-0.901 -0.385,-1.348 m 90.501996,35.564 c -0.849,-0.386 -1.68,-0.779 -2.518,-1.171 -3.247,-1.512 -6.408,-3.053 -9.466,-4.619 -1.721,-0.878 -3.417,-1.762 -5.078,-2.654 -1.236,-0.668 -2.451,-1.34 -3.653,-2.012 -0.531,-0.3 -1.053,-0.598 -1.581,-0.898 -4.393,-2.503 -8.539,-5.047 -12.421,-7.614 -0.626,-0.415 -1.251,-0.831 -1.867,-1.247 -2.771,-1.88 -5.396,-3.767 -7.872,-5.662 -0.278,-0.213 -0.564,-0.421 -0.838,-0.633 -8.467,-6.561 -15.08,-13.13 -19.523,-19.385 -0.431,-0.606 -0.842,-1.211 -1.231,-1.811 -1.751,-2.694 -3.094,-5.328 -3.972,-7.863 0,0 5.478,-5.601 9.853,-12.85 0.245,-0.408 0.479,-0.831 0.718,-1.25 1.076,-1.889 2.054,-3.864 2.832,-5.875 0.094,-0.239 0.172,-0.48 0.259,-0.718 0.337,-0.934 0.624,-1.869 0.855,-2.805 0.136,-0.546 0.248,-1.089 0.344,-1.634 0.092,-0.524 0.194,-1.054 0.244,-1.575 0.141,-1.515 0.882,-3.376 2.102,-5.492 0.265,-0.458 0.56,-0.934 0.869,-1.413 9.979,-15.567 42.746,-42.985 63.351,-54.952 -32.966,36.869 -28.48,109.241 30.822,129.782 75.579,26.183 120.42075,-36.52875 125.29675,-70.51875 17.4885,17.095 60.79625,104.01275 60.79625,104.01275 -9.167,2.752 -18.402,4.974 -27.655,6.734 -1.057,0.201 -2.112,0.403 -3.166,0.592 -2.261,0.402 -4.521,0.784 -6.785,1.13 -0.188,0.031 -0.377,0.063 -0.567,0.091 -2.076,0.318 -4.151,0.61 -6.224,0.878 -10.401,1.351 -20.789,2.132 -31.099,2.414 -1.072,0.029 -2.139,0.046 -3.209,0.064 -5.466,0.096 -10.911,0.062 -16.319,-0.112 -0.627,-0.024 -1.251,-0.058 -1.875,-0.08 -12.857,-0.491 -25.511,-1.722 -37.837,-3.557 -1.212,-0.18 -2.428,-0.357 -3.635,-0.549 -8.051,-1.287 -15.956,-2.825 -23.673,-4.588 -0.4,-0.091 -0.796,-0.187 -1.196,-0.281 -9.785,-2.27 -19.26,-4.889 -28.359,-7.795 -1.35,-0.434 -2.697,-0.871 -4.033,-1.314 -4.399,-1.463 -8.706,-2.986 -12.905,-4.572 -0.55,-0.206 -1.097,-0.416 -1.645,-0.624 -6.293,-2.413 -12.355,-4.943 -18.14,-7.574 m 221.645,40.064 c -4.2,1.091 -8.963,2.224 -14.205,3.198 -5.228,1.026 -10.936,1.899 -16.987,2.645 -6.049,0.754 -12.451,1.289 -19.078,1.698 -6.632,0.325 -13.487,0.576 -20.453,0.508 -6.965,0.002 -14.033,-0.284 -21.092,-0.684 -28.224,-1.726 -56.191,-6.791 -76.375,-13.247 -2.921,-0.919 -5.658,-1.858 -8.229,-2.814 -1.88,-0.695 -3.683,-1.392 -5.354,-2.091 -0.635,-0.27 -1.229,-0.529 -1.836,-0.789 -1.287,-0.549 -2.535,-1.097 -3.665,-1.669 -1.693,-0.78 -3.21,-1.568 -4.546,-2.338 -1.369,-0.714 -2.54,-1.443 -3.545,-2.104 -1.017,-0.637 -1.872,-1.183 -2.512,-1.712 -1.319,-0.994 -2.022,-1.522 -2.022,-1.522 0,0 0.715,0.515 2.051,1.483 0.654,0.508 1.521,1.045 2.548,1.656 1.012,0.635 2.192,1.341 3.574,2.025 1.351,0.736 2.879,1.49 4.581,2.23 1.231,0.597 2.593,1.153 4.007,1.722 0.508,0.203 0.999,0.402 1.523,0.615 1.63,0.64 3.378,1.281 5.198,1.911 2.635,0.916 5.442,1.827 8.441,2.7 20.239,6.009 48.201,10.471 76.282,11.605 7.02,0.252 14.045,0.392 20.953,0.243 6.911,-0.071 13.7,-0.468 20.256,-0.919 6.551,-0.544 12.867,-1.203 18.822,-2.076 5.956,-0.854 11.558,-1.826 16.674,-2.948 5.134,-1.062 9.782,-2.273 13.869,-3.425 2.035,-0.603 3.939,-1.171 5.699,-1.691 1.737,-0.595 3.331,-1.144 4.77,-1.633 2.902,-0.93 5.075,-1.929 6.605,-2.484 1.513,-0.597 2.322,-0.917 2.322,-0.917 l 1.769,4.338 c 0,0 -0.836,0.307 -2.409,0.892 -1.587,0.54 -3.851,1.518 -6.841,2.416 -1.489,0.469 -3.137,0.997 -4.929,1.568 -1.813,0.498 -3.772,1.037 -5.866,1.61 m 138.229,4.243 c 0.078,-0.876 -0.807,-1.902 -2.05,-2.67 -2.508,-1.619 -6.492,-3.009 -11.286,-4.412 -5.5,-1.587 -12.136,-3.137 -19.227,-4.646 -2.553,-9.201 -5.541,-18.234 -8.778,-27.179 2.734,-0.491 5.347,-1.066 7.71,-1.792 2.853,-0.803 5.367,-1.868 7.549,-2.863 1.065,-0.559 2.06,-1.079 2.958,-1.593 0.868,-0.574 1.673,-1.072 2.377,-1.561 1.357,-1.057 2.4,-1.893 3.022,-2.569 0.652,-0.636 1,-0.975 1,-0.975 0,0 -0.385,0.295 -1.103,0.856 -0.686,0.593 -1.813,1.304 -3.246,2.178 -0.749,0.377 -1.577,0.8 -2.48,1.25 -0.926,0.405 -1.946,0.798 -3.029,1.221 -2.215,0.718 -4.729,1.463 -7.558,1.923 -2.55,0.475 -5.355,0.764 -8.293,0.928 -0.318,-0.862 -0.622,-1.726 -0.944,-2.581 -3.689,-9.914 -7.791,-19.67 -12.171,-29.329 5.089,-0.242 9.853,-0.795 14.007,-1.762 2.873,-0.606 5.429,-1.504 7.64,-2.362 1.081,-0.509 2.098,-0.958 3.006,-1.438 0.881,-0.534 1.705,-0.989 2.414,-1.458 1.374,-1.004 2.423,-1.813 3.04,-2.482 0.649,-0.624 0.997,-0.954 0.997,-0.954 0,0 -0.382,0.288 -1.1,0.832 -0.677,0.59 -1.808,1.264 -3.249,2.087 -0.74,0.373 -1.593,0.725 -2.494,1.141 -0.93,0.359 -1.966,0.682 -3.044,1.05 -2.229,0.578 -4.753,1.154 -7.574,1.419 -4.571,0.523 -9.843,0.462 -15.437,0 -2.263,-4.963 -4.683,-9.848 -7.143,-14.731 -2.634,-5.228 -5.359,-10.417 -8.257,-15.518 -2.949,-5.363 -6.058,-10.648 -9.276,-15.878 1.181,-0.139 2.37,-0.276 3.538,-0.403 3.822,-0.585 7.574,-1.124 11.165,-1.967 1.799,-0.355 3.559,-0.757 5.262,-1.272 1.701,-0.499 3.383,-0.888 4.976,-1.447 1.585,-0.569 3.128,-1.123 4.62,-1.659 1.49,-0.525 2.856,-1.265 4.197,-1.845 2.713,-1.107 4.95,-2.676 7.018,-3.811 1.957,-1.353 3.594,-2.617 4.942,-3.633 2.447,-2.333 3.843,-3.668 3.843,-3.668 0,0 -1.529,1.159 -4.208,3.186 -1.445,0.85 -3.184,1.902 -5.22,2.989 -2.157,0.878 -4.443,2.133 -7.198,2.903 -1.362,0.412 -2.726,0.969 -4.225,1.308 -1.487,0.349 -3.026,0.712 -4.608,1.083 -1.579,0.36 -3.253,0.547 -4.928,0.839 -1.672,0.307 -3.404,0.496 -5.175,0.64 -3.514,0.416 -7.19,0.517 -10.9,0.659 -2.305,-0.014 -4.627,-0.014 -6.956,-0.049 -1.74,-2.727 -3.507,-5.444 -5.304,-8.151 -0.372,-0.552 -0.763,-1.097 -1.14,-1.652 0.759,-0.295 1.507,-0.588 2.274,-0.89 1.763,-0.604 3.367,-1.637 5.072,-2.448 3.434,-1.601 6.557,-3.834 9.757,-5.857 3.011,-2.303 6.065,-4.515 8.751,-7.039 2.821,-2.375 5.279,-5.013 7.734,-7.461 2.34,-2.557 4.617,-4.999 6.631,-7.425 2.071,-2.38 3.922,-4.697 5.667,-6.811 3.44,-4.258 6.309,-7.782 8.367,-10.215 2.097,-2.399 3.296,-3.771 3.296,-3.771 0,0 -1.356,1.22 -3.731,3.354 -2.341,2.173 -5.63,5.342 -9.551,9.146 -1.975,1.882 -4.085,3.954 -6.393,6.037 -2.264,2.142 -4.767,4.246 -7.322,6.439 -2.652,2.068 -5.304,4.31 -8.232,6.22 -2.818,2.076 -5.916,3.776 -8.925,5.561 -3.166,1.488 -6.215,3.178 -9.457,4.216 -1.611,0.534 -3.118,1.297 -4.75,1.629 -1.595,0.41 -3.173,0.816 -4.722,1.215 l -0.115,0.029 c -2.765,-3.86 -5.593,-7.69 -8.515,-11.461 2.096,-1.25 4.131,-2.624 6.188,-3.923 3.011,-2.306 6.065,-4.515 8.753,-7.039 2.818,-2.377 5.276,-5.016 7.732,-7.462 2.34,-2.556 4.617,-4.999 6.63,-7.425 2.072,-2.381 3.923,-4.697 5.667,-6.812 3.441,-4.256 6.31,-7.782 8.368,-10.213 2.095,-2.4 3.296,-3.772 3.296,-3.772 0,0 -1.356,1.22 -3.733,3.355 -2.342,2.173 -5.629,5.342 -9.549,9.146 -1.975,1.882 -4.085,3.954 -6.393,6.036 -2.264,2.14 -4.767,4.246 -7.323,6.439 -2.651,2.069 -5.303,4.311 -8.234,6.221 -2.815,2.076 -5.913,3.776 -8.922,5.562 -2.537,1.19 -5.006,2.499 -7.555,3.51 -0.304,-0.37 -0.592,-0.748 -0.896,-1.121 -6.389,-7.755 -13.121,-15.32 -20.256,-22.558 2.515,-3.633 4.794,-7.31 6.856,-10.866 3.445,-5.948 6.401,-11.556 9.098,-16.264 2.682,-4.713 5.134,-8.499 7.03,-11.032 0.948,-1.267 1.725,-2.238 2.294,-2.868 0.556,-0.646 0.851,-0.992 0.851,-0.992 0,0 -0.334,0.306 -0.963,0.882 -0.644,0.562 -1.538,1.435 -2.644,2.589 -2.206,2.306 -5.144,5.821 -8.406,10.22 -3.269,4.381 -6.899,9.621 -10.964,15.007 -2.292,3.043 -4.754,6.124 -7.365,9.099 -8.657,-8.438 -17.777,-16.529 -27.612,-23.855 -0.937,-0.721 -1.913,-1.402 -2.866,-2.108 l 0.619,-0.533 2.245,-2.161 c 1.477,-1.449 3.011,-2.825 4.366,-4.349 1.383,-1.496 2.782,-2.948 4.108,-4.433 1.285,-1.513 2.553,-3.009 3.801,-4.478 2.421,-2.994 4.74,-5.893 6.803,-8.732 2.09,-2.821 4.026,-5.505002 5.745,-8.028002 3.489,-5.009 6.275,-9.251 8.225,-12.222 1.945,-2.97 3.058,-4.668 3.058,-4.668 0,0 -1.289,1.569 -3.543,4.313 -2.258,2.736 -5.486,6.65 -9.472,11.231 -1.971,2.307 -4.168,4.749002 -6.52,7.296002 -2.33,2.567 -4.903,5.152 -7.567,7.805 -1.362,1.289 -2.745,2.6 -4.147,3.929 -1.451,1.26 -2.92,2.537 -4.402,3.824 -1.449,1.317 -3.057,2.463 -4.604,3.686 l -2.338,1.811 -2.188,1.503 c -2.124,-1.486 -4.259,-2.958 -6.417,-4.407 -3.125,-1.995 -6.3,-3.922 -9.505,-5.81 1.335,-2.018 2.606,-4.054 3.722,-6.147 2.153,-3.61 3.826,-7.369 5.557,-10.930002 1.534,-3.646 3.097,-7.125 4.309,-10.521 1.312,-3.359 2.421,-6.571 3.417,-9.544 1.043,-2.955 1.872,-5.7 2.648,-8.121 0.779,-2.417 1.423,-4.535 1.945,-6.282 1.052,-3.49 1.652,-5.482 1.652,-5.482 0,0 -0.806,1.92 -2.221,5.275 -0.7,1.682 -1.562,3.719 -2.59,6.036 -1.025,2.317 -2.133,4.951 -3.473,7.764 -1.296,2.83 -2.724,5.88 -4.356,9.036 -1.539,3.206 -3.427,6.435 -5.284,9.806 -2.039,3.261 -4.02,6.701002 -6.425,9.901002 -1.397,2.064 -2.956,4.028 -4.563,5.951 -0.279,-0.155 -0.549,-0.324 -0.83,-0.478 -5.468,-2.984 -11.014,-5.857 -16.713,-8.448 -2.958,-1.327 -5.952,-2.589 -8.968,-3.795002 0.531,-0.896 1.061,-1.791 1.591,-2.689 1.882,-3.187 3.761,-6.375 5.611,-9.511 1.727,-3.204 3.423,-6.356 5.07,-9.408 0.818,-1.521 1.625,-3.017 2.414,-4.482 0.763,-1.479 1.451,-2.962 2.153,-4.383 1.385,-2.848 2.693,-5.541 3.902,-8.026 1.251,-2.458 2.206,-4.813 3.097,-6.87 0.883,-2.061 1.654,-3.855 2.288,-5.335 1.267,-2.951 1.99,-4.637 1.99,-4.637 0,0 -0.921,1.589 -2.531,4.373 -0.804,1.387 -1.781,3.073 -2.901,5.006 -1.122,1.929 -2.338,4.127 -3.872,6.416 -1.486,2.306 -3.096,4.809 -4.799,7.452 -0.856,1.315 -1.705,2.685 -2.631,4.047 -0.948,1.351 -1.92,2.727 -2.907,4.129 -1.969,2.795 -4.006,5.685 -6.074,8.621 -2.179,2.852 -4.392,5.747 -6.605,8.643 l -3.005,3.922 c -0.425,-0.154 -0.839,-0.327 -1.267,-0.48 -5.888,-2.164 -11.912,-3.969 -17.953,-5.68 -4.078,-1.04 -8.182,-1.96 -12.304,-2.807 0.09,-0.26 0.163,-0.525 0.257,-0.782 0.484,-1.501 1.017,-2.982 1.616,-4.424 0.594,-1.446 1.115,-2.933 1.769,-4.336 1.287,-2.817 2.558,-5.611 4.028,-8.187 1.34,-2.662 2.951,-5.043 4.378,-7.386 1.474,-2.307 3.06,-4.361 4.434,-6.338 1.463,-1.904 2.89,-3.586 4.118,-5.118 1.197,-1.561 2.44,-2.738 3.371,-3.801 1.913,-2.08 3.009,-3.27 3.009,-3.27 0,0 -1.247,1.029 -3.427,2.834 -1.068,0.929 -2.479,1.945 -3.886,3.334 -1.434,1.363 -3.101,2.862 -4.842,4.581 -1.653,1.797 -3.552,3.67 -5.379,5.817 -1.776,2.182 -3.774,4.416 -5.525,6.962 -1.886,2.462 -3.598,5.162 -5.345,7.925 -0.882,1.376 -1.628,2.837 -2.46,4.27 -0.839,1.43 -1.604,2.903 -2.327,4.396 -0.365,0.702 -0.685,1.421 -1.03,2.133 -5.8,-1 -11.622,-1.847 -17.47,-2.374 -2.366,-0.223 -4.729,-0.379 -7.098,-0.511 0.007,-0.135 0.005,-0.271 0.009,-0.409 0.273,-6.821 1.137,-13.643 2.598,-19.906 1.449,-6.265 3.504,-11.961 5.806,-16.602 2.281,-4.657 4.795,-8.236 6.725,-10.603 0.962,-1.182 1.76,-2.089 2.332,-2.678 0.565,-0.599 0.866,-0.918 0.866,-0.918 0,0 -0.34,0.279 -0.973,0.803 -0.643,0.517 -1.553,1.318 -2.668,2.386 -2.237,2.129 -5.242,5.433 -8.182,9.915 -2.965,4.464 -5.834,10.089 -8.163,16.419 -2.339,6.322 -4.138,13.33 -5.323,20.454 -0.047,0.276 -0.076,0.557 -0.121,0.835 -1.5,-0.044 -2.999,-0.081 -4.496,-0.114 -5.682,-0.08 -11.342,0.112 -16.979,0.478 -0.412,-1.077 -0.823,-2.159 -1.072,-3.271 -0.459,-1.73 -0.915,-3.45 -1.369,-5.159 -0.6,-3.457 -1.334,-6.904 -1.407,-10.274 -0.115,-1.682 -0.262,-3.352 -0.12,-4.97 0.099,-1.617 0.07,-3.232 0.267,-4.771 0.241,-1.537 0.473,-3.033 0.7,-4.482 0.228,-1.453 0.736,-2.781 1.068,-4.11 0.185,-0.66 0.365,-1.307 0.543,-1.939 0.224,-0.613 0.494,-1.191 0.732,-1.769 0.489,-1.154 0.95,-2.25 1.386,-3.28 1.11,-1.931 2.092,-3.637 2.966,-5.002 2.021,-2.547 3.176,-4.003 3.176,-4.003 0,0 -1.327,1.32 -3.652,3.631 -1.039,1.265 -2.237,2.87 -3.614,4.729 -0.571,1.001 -1.179,2.069 -1.821,3.194 -0.316,0.57 -0.672,1.143 -0.975,1.751 -0.263,0.63 -0.532,1.276 -0.804,1.934 -0.508,1.332 -1.203,2.683 -1.624,4.169 -0.414,1.494 -0.848,3.039 -1.292,4.625 -0.398,1.604 -0.574,3.29 -0.878,5.003 -0.351,1.718 -0.412,3.487 -0.504,5.292 -0.34,3.623 -0.009,7.351 0.212,11.164 0.266,1.886 0.538,3.787 0.809,5.695 0.087,0.815 0.25,1.608 0.433,2.399 -4.4,0.407 -8.79,0.887 -13.14,1.496 -0.911,0.146 -1.843,0.289 -2.78,0.429 -1.531,-4.317 -2.907,-8.638 -4.098,-12.816 -0.932,-3.232 -1.717,-6.388 -2.425,-9.397 -0.69,-3.01 -1.267,-5.875 -1.744,-8.534 -0.463,-2.66 -0.818,-5.111 -1.096,-7.291 -0.236,-2.184 -0.444,-4.095 -0.529,-5.673 -0.133,-1.577 -0.15,-2.821 -0.178,-3.67 -0.025,-0.847 -0.04,-1.302 -0.04,-1.302 0,0 -0.039,0.453 -0.116,1.298 -0.076,0.846 -0.209,2.09 -0.271,3.679 -0.107,1.589 -0.13,3.521 -0.161,5.744 0.014,2.222 0.069,4.729 0.211,7.463 0.152,2.734 0.384,5.695 0.707,8.822 0.349,3.123 0.756,6.419 1.297,9.81 0.66,4.166 1.478,8.495 2.437,12.864 -0.151,0.028 -0.307,0.053 -0.453,0.082 l -4.208,0.856 -2.376,0.473 -2.473,0.552 c -2.316,0.523 -4.566,1.124 -6.792,1.758 -1.264,-3.099 -2.415,-6.196 -3.438,-9.225 -1.985,-5.858 -3.422,-11.477 -4.398,-16.35 -0.972,-4.878 -1.487,-9.015 -1.675,-11.925 -0.141,-1.456 -0.141,-2.603 -0.183,-3.384 -0.027,-0.784 -0.043,-1.204 -0.043,-1.204 0,0 -0.04,0.418 -0.113,1.197 -0.063,0.782 -0.213,1.931 -0.264,3.396 -0.195,2.936 -0.23,7.149 0.103,12.206 0.463,7.637 1.947,17.169 4.514,26.979 -2.19,0.724 -4.356,1.475 -6.473,2.279 -5.733,2.291 -11.244,4.809 -16.573,7.511002 -4.588,-6.466002 -8.367,-13.066002 -10.923,-18.659002 -1.854,-4.003 -3.158,-7.467 -3.941,-9.935 -0.805,-2.464 -1.18,-3.906 -1.18,-3.906 0,0 0.156,1.477 0.594,4.052 0.417,2.577 1.206,6.238 2.472,10.562 1.725,5.962 4.51,13.151 8.186,20.437002 -3.948,2.136 -7.835,4.34 -11.594,6.681 -3.38,2.106 -6.681,4.286 -9.951,6.495 -0.351,-0.453 -0.703,-0.907 -1.03,-1.371 -1.349,-2.287 -2.901,-4.405 -3.966,-6.634 -1.036,-2.236 -2.242,-4.286 -2.975,-6.334 -0.772,-2.044 -1.479,-3.921002 -2.107,-5.580002 -0.542,-1.695 -0.905,-3.207 -1.264,-4.441 -0.685,-2.483 -1.077,-3.902 -1.077,-3.902 0,0 0.177,1.463 0.483,4.019 0.174,1.28 0.311,2.854 0.601,4.637 0.38,1.772 0.811,3.771002 1.279,5.953002 0.438,2.202 1.339,4.464 2.076,6.95 0.761,2.481 2.027,4.918 3.106,7.565 0.305,0.604 0.635,1.204 0.972,1.803 -0.372,0.259 -0.752,0.507 -1.122,0.768 -4.846,3.462 -9.562,7.054 -14.19,10.724 -0.444,0.352 -0.873,0.724 -1.315,1.078 -0.386,-0.248 -0.782,-0.515 -1.168,-0.756 -2.379,-1.896 -4.679996,-3.668 -6.752996,-5.372 -1.927,-1.876 -3.692,-3.596 -5.255,-5.12 -1.604,-1.508 -2.676,-3.102 -3.732,-4.277 -2.024,-2.439 -3.183,-3.831 -3.183,-3.831 0,0 0.981,1.523 2.696,4.19 0.909,1.299 1.805,3.05 3.226,4.754 1.398,1.737 2.975,3.698 4.698,5.836 1.891,1.989 4.019,4.087 6.251996,6.35 0.168,0.138 0.349,0.295 0.52,0.436 -3.215996,2.651 -6.389996,5.353 -9.503996,8.11 -3.881,3.413 -7.584,6.868 -11.322,10.57 -2.613,-1.485 -5.024,-3.152 -7.395,-4.636 -2.378,-1.896 -4.679,-3.667 -6.756,-5.371 -1.924,-1.876 -3.688,-3.596 -5.254,-5.12 -1.604,-1.507 -2.676,-3.102 -3.732,-4.279 -2.024,-2.437 -3.181,-3.83 -3.181,-3.83 0,0 0.981,1.525 2.697,4.19 0.908,1.299 1.804,3.05 3.225,4.755 1.398,1.739 2.975,3.698 4.696,5.838 1.891,1.987 4.019,4.084 6.255,6.348 2.086,1.695 4.248,3.577 6.58,5.352 l -1.035,1.361 c 0.093,-0.13 -0.01,0.171 -0.049,0.316 l -0.202,0.579 c -0.155,0.406 -0.327,0.826 -0.521,1.255 -0.38,0.851 -0.829,1.718 -1.318,2.576 -0.974,1.722 -2.079,3.448 -3.341,5.092 -2.502,3.312 -5.559,6.335 -8.93,9.127 -3.408,2.74 -7.168,5.219 -11.208,7.352 -1.002,0.545 -2.036,1.037 -3.071,1.551 -1.03,0.532 -2.1,0.958 -3.157,1.447 -2.119,0.905 -4.319,1.793 -6.548,2.589 2.36,0.005 4.726,-0.002 7.129,-0.213 2.379,-0.215 4.791,-0.459 7.168,-0.926 4.783,-0.845 9.544,-2.227 14.17,-4.195 2.303,-1 4.604,-2.093 6.812,-3.397 2.214,-1.287 4.36,-2.745 6.437,-4.347 2.069,-1.605 4.075,-3.359 5.933,-5.332 0.932,-0.985 1.836,-2.016 2.709,-3.125 0.323,-0.407 0.637,-0.843 0.955,-1.275 0.796,-0.487 1.632,-0.977 2.447,-1.463 0.25,0.123 0.491,0.27 0.746,0.386 1.69,0.785 3.384,1.571 5.079,2.357 1.515,0.744 3.103996,1.271 4.665996,1.875 -15.486996,13.106 -25.821996,23.265 -25.821996,23.265 0,0 -7.615,17.739 -37.259,27.699 -24.384,8.192 -0.196,22.63 29.064,35.895 9.955,4.51 12.088,5.479 12.465,5.651 l 0.061,0.025 c 0.18,0.084 0.87,0.393 3.117,1.412 0.287,1.676 0.624,3.329 1.055,4.939 0.402,1.51 0.875,2.985 1.385,4.438 l 0.002,0.128 c -1.114,0.501 -2.226,1.02 -3.328,1.56 -8.479,4.112 -16.551,9.237 -21.436,14.447 -1.231,1.277 -2.225,2.588 -3.005,3.799 -0.781,1.214 -1.285,2.38 -1.623,3.349 -0.266,1.001 -0.451,1.783 -0.442,2.336 -0.032,0.542 -0.051,0.834 -0.051,0.834 0,0 0.051,-0.283 0.154,-0.82 0.059,-0.535 0.339,-1.287 0.714,-2.201 0.445,-0.892 1.059,-1.935 1.948,-2.99 0.887,-1.061 1.98,-2.169 3.308,-3.238 5.253,-4.352 13.611,-8.288 22.214,-11.189 0.55,-0.188 1.105,-0.359 1.657,-0.535 0.281,6.316 1.053,12.585 2.219,18.763 -4.649,3.557 -8.661,7.422 -11.25,11.13 -0.954,1.331 -1.682,2.648 -2.263,3.836 -0.548,1.212 -0.906,2.312 -1.128,3.231 -0.178,0.932 -0.295,1.659 -0.279,2.167 -0.022,0.496 -0.031,0.765 -0.031,0.765 0,0 0.047,-0.265 0.134,-0.759 0.054,-0.492 0.27,-1.188 0.562,-2.055 0.337,-0.862 0.825,-1.856 1.498,-2.931 0.712,-1.06 1.568,-2.203 2.648,-3.332 2.674,-2.894 6.5,-5.772 10.856,-8.353 0.143,0.661 0.248,1.326 0.4,1.979 2.034,8.673 5.11,17.01 8.661,25.109 -1.248,1.763 -2.354,3.482 -3.288,5.121 -0.942,1.612 -1.681,3.159 -2.283,4.546 -0.582,1.395 -0.978,2.657 -1.241,3.708 -0.21,1.068 -0.372,1.896 -0.364,2.478 -0.029,0.572 -0.043,0.881 -0.043,0.881 0,0 0.05,-0.302 0.148,-0.869 0.058,-0.565 0.318,-1.371 0.643,-2.377 0.382,-0.99 0.909,-2.16 1.635,-3.441 0.744,-1.275 1.633,-2.676 2.729,-4.122 0.892,-1.209 1.928,-2.459 3.040996,-3.725 0.318,0.713 0.618,1.432 0.944,2.139 4.296,8.657 9.306,16.927 14.905,24.75 -0.107,0.604 -0.192,1.145 -0.187,1.534 -0.027,0.572 -0.045,0.88 -0.045,0.88 0,0 0.052,-0.301 0.147,-0.869 0.036,-0.334 0.15,-0.765 0.293,-1.25 6.417,8.924 13.612,17.257 21.536,24.817 14.845,14.357 31.755,26.421 49.84,36.14 18.105,9.708 37.376,17.046 57.101,22.423 19.756,5.315 39.998,8.547 60.31,10.152 20.316,1.552 40.741,1.76 61.025,0.146 2.535,-0.178 5.079,-0.251 7.607,-0.521 l 7.582,-0.807 c 5.05,-0.592 10.122,-0.957 15.145,-1.737 10.049,-1.527 20.119,-2.892 30.058,-5.004 19.984,-3.658 39.611,-8.958 59.122,-14.494 -19.619,5.158 -39.319,10.078 -59.333,13.341 -9.955,1.918 -20.024,3.089 -30.062,4.412 -5.018,0.684 -10.083,0.95 -15.119,1.441 l -7.563,0.66 c -2.52,0.218 -5.053,0.243 -7.58,0.373 -20.203,1.216 -40.481,0.615 -60.568,-1.308 -20.087,-1.972 -40.02,-5.556 -59.36,-11.16 -19.31,-5.667 -38.067,-13.233 -55.552,-23.052 -17.469,-9.822 -33.657,-21.872 -47.716,-35.999 -1.11,-1.101 -2.178,-2.242 -3.257,-3.371 0.431,-0.999 0.967,-2.098 1.695,-3.31 0.855,-1.438 1.887,-3.015 3.134,-4.654 3.495,-4.716 8.479,-10.049 14.094,-15.254 11.64,7.911 23.732,15.103 36.181,21.595 -1.639,4.005 -2.983,7.818 -3.95,11.158 -1.02,3.502 -1.606,6.494 -1.861,8.604 -0.096,1.059 -0.183,1.881 -0.172,2.455 -0.011,0.565 -0.015,0.866 -0.015,0.866 0,0 0.043,-0.299 0.123,-0.859 0.055,-0.563 0.243,-1.369 0.46,-2.392 0.504,-2.036 1.431,-4.886 2.844,-8.183 1.332,-3.127 3.088,-6.665 5.138,-10.339 3.685,1.888 7.39,3.732 11.128,5.502 7.695,3.628 15.504,7.009 23.404,10.147 -1.147,3.72 -2.265,7.176 -3.324,10.083 -0.536,1.384 -1.027,2.653 -1.463,3.777 -0.498,1.099 -0.931,2.057 -1.293,2.846 -0.84,1.523 -1.319,2.391 -1.319,2.391 0,0 0.606,-0.798 1.67,-2.186 0.473,-0.735 1.05,-1.629 1.711,-2.66 0.603,-1.063 1.284,-2.258 2.026,-3.568 1.491,-2.748 3.118,-6.035 4.813,-9.571 8.277,3.214 16.659,6.144 25.135,8.775 -0.226,0.578 -0.443,1.122 -0.654,1.564 -0.731,1.389 -1.151,2.185 -1.151,2.185 0,0 0.546,-0.723 1.499,-1.984 0.301,-0.437 0.631,-0.979 0.976,-1.559 1.516,0.466 3.031,0.941 4.551,1.392 7.048,2.083 14.159,3.964 21.316,5.639 -0.834,2.629 -1.647,5.076 -2.429,7.222 -0.535,1.385 -1.027,2.653 -1.458,3.778 -0.501,1.098 -0.936,2.053 -1.294,2.844 -0.842,1.521 -1.322,2.389 -1.322,2.389 0,0 0.608,-0.791 1.668,-2.186 0.476,-0.733 1.052,-1.627 1.713,-2.656 0.606,-1.063 1.287,-2.261 2.028,-3.565 1.154,-2.131 2.395,-4.593 3.68,-7.238 13.082,2.967 26.326,5.226 39.643,6.707 -0.212,0.462 -0.338,0.739 -0.338,0.739 0,0 0.188,-0.27 0.5,-0.721 16.098,1.786 32.306,2.441 48.481,1.802 0.069,0.397 0.151,0.811 0.208,1.198 0.496,3.2 0.546,5.93 0.185,7.783 -0.199,0.917 -0.391,1.655 -0.653,2.09 -0.23,0.461 -0.353,0.708 -0.353,0.708 0,0 0.155,-0.231 0.444,-0.656 0.327,-0.407 0.62,-1.122 0.953,-2.039 0.627,-1.859 0.951,-4.668 0.883,-8.008 -0.005,-0.372 -0.033,-0.775 -0.046,-1.158 1.926,-0.087 3.854,-0.174 5.781,-0.298 10.732,-0.667 21.426,-1.95 32.015,-3.806 0.043,0.265 0.1,0.544 0.139,0.8 0.496,3.2 0.546,5.93 0.185,7.784 -0.199,0.916 -0.391,1.654 -0.654,2.092 -0.228,0.459 -0.351,0.706 -0.351,0.706 0,0 0.155,-0.229 0.443,-0.656 0.326,-0.408 0.619,-1.122 0.953,-2.039 0.626,-1.859 0.951,-4.668 0.882,-8.008 -0.004,-0.309 -0.027,-0.645 -0.038,-0.962 14.975,-2.714 29.72,-6.613 44.029,-11.704 1.625,2.15 3.098,4.238 4.305,6.185 0.974,1.598 1.785,3.102 2.384,4.496 0.571,1.388 0.992,2.655 1.084,3.727 0.068,0.539 0.111,1.021 0.02,1.431 -0.057,0.421 -0.061,0.793 -0.221,1.043 -0.239,0.541 -0.367,0.829 -0.367,0.829 0,0 0.161,-0.275 0.462,-0.786 0.195,-0.249 0.245,-0.62 0.353,-1.045 0.145,-0.423 0.159,-0.928 0.155,-1.491 0.031,-1.138 -0.249,-2.494 -0.675,-4 -0.448,-1.506 -1.101,-3.15 -1.906,-4.896 -0.928,-1.983 -2.071,-4.099 -3.342,-6.291 10.868,-3.971 21.467,-8.642 31.722,-13.988 3.086,1.993 5.904,3.953 8.303,5.838 3.191,2.51 5.635,4.938 6.677,7.05 0.512,1.052 0.574,2.012 0.407,2.619 -0.128,0.54 -0.318,0.769 -0.35,0.837 0.08,-0.1 0.286,-0.342 0.45,-0.804 0.241,-0.606 0.284,-1.642 -0.136,-2.805 -0.858,-2.339 -3.114,-5.096 -6.081,-7.994 -1.98,-1.932 -4.302,-3.952 -6.819,-6.024 0.411,-0.221 0.832,-0.427 1.241,-0.646 -0.419,0.212 -0.843,0.413 -1.264,0.628 -5.066,-4.162 -10.987,-8.522 -16.964,-12.792 -8.881,-6.332 -17.893,-12.456 -24.392,-17.261 0.835,-0.421 1.61,-0.825 2.327,-1.21 7.892,2.714 17.301,5.59 26.755,8.408 11.544,3.431 23.084,6.762 31.691,9.41 4.304,1.321 7.87,2.477 10.35,3.334 2.483,0.858 3.877,1.42 3.877,1.42 0,0 -1.298,-0.759 -3.636,-1.973 -2.339,-1.221 -5.715,-2.885 -9.795,-4.825 -8.155,-3.886 -19.114,-8.872 -29.999,-13.933 -8.45,-3.932 -16.862,-7.921 -23.804,-11.479 -0.215,-1.335 -0.439,-2.685 -0.672,-4.056 9.233,0.687 20.29,1.248 31.363,1.91 13.179,0.787 26.336,1.687 36.077,3.145 4.853,0.744 8.902,1.582 11.457,2.796 1.278,0.577 2.159,1.374 2.193,2.145 0.015,0.74 -0.361,1.083 -0.309,1.093 -0.052,-0.019 0.368,-0.284 0.466,-1.095" />
  <path
     style="fill:none;stroke:#8ae234;stroke-width:1px;stroke-linecap:butt;stroke-linejoin:miter;stroke-opacity:1"
     d="M 139.71902,207.74577 C 240.7146,95.646945 320.05716,151.25639 386.875,273.03455"
     id="path825" />
  <path
     id="path814"
     d="M 232.77888,0.00664539 C 221.69447,-0.22701361 213.22704,5.7413804 207.65192,11.549614 201.66291,8.4354474 195.28964,7.9328274 189.98395,8.6375044 c -6.22288,0.826496 -11.59773,2.9794846 -16.33984,5.7285156 -2.31328,1.341025 -4.4706,2.749448 -6.48633,4.464844 -5.1609,0.555962 -10.12906,2.15188 -14.12695,5.042969 -5.69511,4.11844 -8.95571,9.714032 -10.92383,15.072265 -0.0414,-0.0095 -0.0757,-0.02779 -0.11719,-0.03711 -4.46182,-1.001647 -9.47174,-0.419727 -13.83398,1.240235 -7.52775,1.545276 -14.76294,6.439636 -17.72461,12.009765 -1.46267,2.750909 -2.22617,5.207446 -2.74219,7.441406 -0.25214,0.02733 -0.50352,0.0612 -0.7539,0.101562 -7.258588,1.345664 -14.06718,5.582844 -18.042973,11.03711 -3.173886,4.354154 -4.670763,8.944835 -5.416016,13.224609 -6.230902,0.567125 -11.86727,3.039586 -16.519531,6.542969 -3.423765,2.578264 -6.402335,5.884955 -8.675782,9.759765 -1.902077,-0.15113 -3.962904,-0.0986 -6.330078,0.55078 l 3.087891,-0.50195 c -9.247039,0.50015 -18.247544,3.96657 -23.8125,10.91601 -5.564956,6.94945 -6.523887,15.44291 -5.667968,22.32813 1.20486,9.69219 5.081833,17.95825 10.566406,24.83985 -4.067781,1.75708 -9.068364,3.75442 -14.333985,7.32812 -5.725864,3.88606 -12.8256675,11.63048 -12.9492185,21.94727 l 0.566406,-3.86329 c -1.983627,6.92487 -0.302239,14.40077 2.5371095,19.63868 -6.4896595,6.12723 -10.8307485,13.78791 -11.73437451,21.85546 -1.167836,10.42642 2.67511401,19.68474 7.76757801,27.07422 7.1188465,10.32989 16.8223905,18.32393 27.3496095,23.65235 -1.061843,1.23628 -2.120408,2.33159 -3.166016,3.84375 -3.535104,5.11245 -7.065735,13.56417 -4.634765,22.58984 l -0.501954,-4.11133 c -0.152513,7.55489 2.615137,15.1689 6.785157,20.01563 4.170019,4.84673 8.57214,7.07482 11.335937,8.64844 2.50127,1.42414 3.308203,2.09367 3.40625,2.13867 -0.01005,0.11433 -0.03757,-0.0453 -0.04102,0.16797 -0.09375,5.86284 3.312521,11.2184 8.66211,13.61914 2.360691,1.05924 3.532886,1.68886 5.015624,2.43945 -0.03155,0.21648 -0.0027,0.11695 -0.03906,0.34766 -0.272162,1.72599 -0.233799,3.48671 0.113281,5.19921 1.57792,7.7786 6.54041,15.00343 12.226563,18.64649 5.686153,3.64306 10.763735,4.40872 14.015625,5.09961 2.447899,0.52007 2.802602,0.69451 3.132812,0.77148 0.547161,2.50747 1.742547,4.82753 3.466797,6.72852 19.981495,21.92342 42.489065,44.20163 70.826175,59.66797 80.26711,46.0226 176.56335,48.73413 262.41406,32.5957 0.14627,-0.0271 0.29212,-0.0564 0.4375,-0.0879 22.84918,-5.02049 48.28019,-8.84565 72.60157,-19.47852 1.27876,-0.55959 2.47112,-1.29881 3.54101,-2.19531 6.15958,-5.15822 10.78823,-12.68369 11.12109,-20.54883 0.005,-0.12689 -0.0269,-0.2334 -0.0234,-0.35937 4.64113,-0.39112 10.1521,-2.75286 13.38086,-6.38281 1.0423,-1.17182 1.85741,-2.36342 2.57031,-3.56446 0.57764,-0.31175 1.17495,-0.59499 1.69922,-0.98047 3.33364,-2.45107 4.97722,-5.55152 5.8164,-7.8164 1.55831,-4.20572 1.86973,-6.99798 1.79493,-9.20117 7.07077,-2.20077 13.60141,-6.91284 16.50781,-12.83789 3.23818,-6.60144 2.93013,-11.91255 2.83789,-15.49805 1.37434,-0.52701 2.66154,-1.25785 3.81836,-2.16797 5.77194,-4.5777 7.87294,-10.21759 8.70703,-12.16992 0.004,-0.0104 0.008,-0.0208 0.0117,-0.0312 4.02268,-9.47448 3.19683,-21.06452 -1.82813,-28.56446 -5.02496,-7.49993 -11.6947,-11.0612 -17.44531,-13.81835 -0.89685,-0.43 -1.36191,-0.55969 -2.23437,-0.94922 0.6948,-0.94652 1.46732,-1.78195 2.10156,-2.8125 5.56227,-9.03799 6.58173,-23.91924 -1.35156,-34.66797 -1.0451,-1.52755 -2.28072,-2.94359 -3.66016,-4.2461 1.11071,-2.62173 1.97535,-5.43672 2.28711,-8.54101 0.72939,-7.26282 -1.72226,-15.15613 -6.38281,-21.39063 -4.53507,-6.13944 -11.9223,-10.49876 -18.90625,-11.39062 3.04385,-2.31034 6.04615,-4.86789 8.78906,-8.05469 3.89245,-4.52238 7.45034,-10.43151 8.35156,-17.83984 0.82789,-6.80553 -1.24177,-14.19467 -5.23242,-20.36133 -1.50282,-3.05064 -3.64227,-5.94113 -6.30078,-8.18555 2.92148,-4.86826 5.46144,-10.07772 6.99804,-15.90234 2.00158,-7.58711 2.30665,-17.86893 -4.46289,-26.09961 -5.85766,-7.12198 -14.6553,-9.78887 -24.11914,-10.1543 -0.45177,-0.72612 -0.29121,-0.52244 -0.82421,-1.375 -2.14961,-3.4384 -5.1426,-8.3188 -11.81641,-11.83398 -6.67381,-3.51518 -16.62665,-3.0089 -23.74609,0.85351 -0.11346,0.0617 -0.22611,0.12482 -0.3379,0.18946 -1.46163,0.84346 -2.7579,1.75794 -4.11718,2.64648 0.0901,-2.57293 -0.0749,-5.11221 -0.71875,-7.50781 -2.25182,-8.37861 -7.88126,-14.367354 -14.22461,-18.126956 -2.68887,-1.59365 -5.61673,-2.758913 -8.66797,-3.585938 0.16398,-0.379201 0.35381,-0.731982 0.51367,-1.115234 0.86908,-2.084009 1.24538,-4.340499 1.09961,-6.59375 -0.69571,-10.741726 -4.42996,-20.843131 -12.94922,-26.615235 -8.1231,-5.503688 -17.5289,-4.963335 -24.82226,-2.673828 -0.0235,-0.09443 -0.0185,-0.201009 -0.043,-0.294922 -1.94537,-7.47623 -6.33806,-13.47723 -11.99024,-17.779296 -5.33393,-4.059836 -12.15213,-6.680071 -19.74023,-6.376953 -0.99141,-1.639666 -2.10682,-3.20269 -3.46094,-4.59375 -6.9243,-7.113189 -16.54558,-8.929886 -24.61133,-7.923829 -5.83589,0.727924 -11.59963,2.849235 -16.70312,6.136719 -5.06249,-4.358672 -11.43286,-7.204424 -17.64063,-7.603516 -6.37009,-0.409527 -11.9462,1.349916 -16.50781,3.603516 -0.0539,-0.102407 -0.0733,-0.208395 -0.12891,-0.310547 -3.61388,-6.642401 -10.28743,-11.3359706 -17.57617,-13.7578116 -0.8037,-0.267459 -1.62905,-0.464811 -2.4668,-0.589844 -9.62707,-1.432579 -18.34393,1.435128 -25.38085,5.976562 -4.99397,-5.19402 -11.82726,-8.67319801 -20.07032,-8.88085901 -0.0202,-7.08e-4 -0.0403,-0.0014 -0.0605,-0.002 z"
     style="fill:#ffffff;stroke:none;stroke-width:10.10000038;stroke-linecap:round;stroke-miterlimit:4;stroke-dasharray:none" />
  <path
     id="path4"
     d="M 231.86719 30.226562 C 231.86719 30.226562 230.53984 31.546422 228.21484 33.857422 C 227.17584 35.122422 225.97856 36.728891 224.60156 38.587891 C 224.03056 39.588891 223.42325 40.65625 222.78125 41.78125 C 222.46525 42.35125 222.10769 42.925203 221.80469 43.533203 C 221.54169 44.163203 221.27395 44.808797 221.00195 45.466797 C 220.49395 46.798797 219.79795 48.148766 219.37695 49.634766 C 218.96295 51.128766 218.52994 52.673766 218.08594 54.259766 C 217.68794 55.863766 217.51103 57.550672 217.20703 59.263672 C 216.85603 60.981672 216.79512 62.749688 216.70312 64.554688 C 216.36312 68.177688 216.69502 71.90575 216.91602 75.71875 C 217.18202 77.60475 217.45361 79.506063 217.72461 81.414062 C 217.81161 82.229062 217.9752 83.0215 218.1582 83.8125 C 213.7582 84.2195 209.36758 84.699594 205.01758 85.308594 C 204.10658 85.454594 203.17528 85.598281 202.23828 85.738281 C 200.70728 81.421281 199.32967 77.099875 198.13867 72.921875 C 197.20667 69.689875 196.42284 66.534391 195.71484 63.525391 C 195.02484 60.515391 194.4477 57.651188 193.9707 54.992188 C 193.5077 52.332188 193.153 49.881172 192.875 47.701172 C 192.639 45.517172 192.4307 43.605344 192.3457 42.027344 C 192.2127 40.450344 192.19597 39.206422 192.16797 38.357422 C 192.14297 37.510422 192.12695 37.054687 192.12695 37.054688 C 192.12695 37.054688 192.08872 37.508516 192.01172 38.353516 C 191.93572 39.199516 191.80223 40.444203 191.74023 42.033203 C 191.63323 43.622203 191.61108 45.552391 191.58008 47.775391 C 191.59408 49.997391 191.64902 52.506234 191.79102 55.240234 C 191.94302 57.974234 192.17505 60.933547 192.49805 64.060547 C 192.84705 67.183547 193.25392 70.480094 193.79492 73.871094 C 194.45492 78.037094 195.27342 82.365375 196.23242 86.734375 C 196.08142 86.762375 195.9253 86.787406 195.7793 86.816406 L 191.57031 87.673828 L 189.19531 88.146484 L 186.7207 88.699219 C 184.4047 89.222219 182.15569 89.823031 179.92969 90.457031 C 178.66569 87.358031 177.51519 84.259469 176.49219 81.230469 C 174.50719 75.372469 173.06975 69.753859 172.09375 64.880859 C 171.12175 60.002859 170.60597 55.867031 170.41797 52.957031 C 170.27697 51.501031 170.27833 50.353266 170.23633 49.572266 C 170.20933 48.788266 170.19336 48.369141 170.19336 48.369141 C 170.19336 48.369141 170.15308 48.785453 170.08008 49.564453 C 170.01708 50.346453 169.86741 51.495937 169.81641 52.960938 C 169.62141 55.896937 169.58497 60.110969 169.91797 65.167969 C 170.38097 72.804969 171.86464 82.336484 174.43164 92.146484 C 172.24164 92.870484 170.07598 93.621781 167.95898 94.425781 C 162.22598 96.716781 156.71572 99.233545 151.38672 101.93555 C 146.79872 95.469545 143.01889 88.870344 140.46289 83.277344 C 138.60889 79.274344 137.30644 75.809797 136.52344 73.341797 C 135.71844 70.877797 135.3418 69.435547 135.3418 69.435547 C 135.3418 69.435547 135.4995 70.913281 135.9375 73.488281 C 136.3545 76.065281 137.1422 79.726781 138.4082 84.050781 C 140.1332 90.012781 142.91775 97.202279 146.59375 104.48828 C 142.64575 106.62428 138.759 108.82697 135 111.16797 C 131.62 113.27397 128.31883 115.45506 125.04883 117.66406 C 124.69783 117.21106 124.34653 116.75697 124.01953 116.29297 C 122.67053 114.00597 121.11773 111.8872 120.05273 109.6582 C 119.01673 107.4222 117.81112 105.37222 117.07812 103.32422 C 116.30612 101.28022 115.5987 99.403141 114.9707 97.744141 C 114.4287 96.049141 114.06603 94.536734 113.70703 93.302734 C 113.02203 90.819734 112.63086 89.400391 112.63086 89.400391 C 112.63086 89.400391 112.80728 90.863922 113.11328 93.419922 C 113.28728 94.699922 113.42484 96.273641 113.71484 98.056641 C 114.09484 99.828641 114.52614 101.82777 114.99414 104.00977 C 115.43214 106.21177 116.33331 108.47494 117.07031 110.96094 C 117.83131 113.44194 119.09678 115.87839 120.17578 118.52539 C 120.48078 119.12939 120.81144 119.72913 121.14844 120.32812 C 120.77644 120.58713 120.39539 120.8347 120.02539 121.0957 C 115.17939 124.5577 110.46394 128.15031 105.83594 131.82031 C 105.39194 132.17231 104.96348 132.54444 104.52148 132.89844 C 104.13548 132.65044 103.73952 132.38358 103.35352 132.14258 C 100.97452 130.24658 98.672609 128.47353 96.599609 126.76953 C 94.672609 124.89353 92.90675 123.17439 91.34375 121.65039 C 89.73975 120.14239 88.669281 118.54805 87.613281 117.37305 C 85.589281 114.93405 84.429688 113.54297 84.429688 113.54297 C 84.429688 113.54297 85.41 115.06542 87.125 117.73242 C 88.034 119.03142 88.930563 120.78233 90.351562 122.48633 C 91.749562 124.22333 93.325828 126.18427 95.048828 128.32227 C 96.939828 130.31127 99.067785 132.40887 101.30078 134.67188 C 101.46878 134.80988 101.65127 134.96642 101.82227 135.10742 C 98.60627 137.75842 95.432359 140.46175 92.318359 143.21875 C 88.437359 146.63175 84.734094 150.08706 80.996094 153.78906 C 78.383094 152.30406 75.972562 150.63634 73.601562 149.15234 C 71.223562 147.25634 68.92075 145.48525 66.84375 143.78125 C 64.91975 141.90525 63.155844 140.18611 61.589844 138.66211 C 59.985844 137.15511 58.915375 135.55981 57.859375 134.38281 C 55.835375 131.94581 54.677734 130.55273 54.677734 130.55273 C 54.677734 130.55273 55.659 132.07719 57.375 134.74219 C 58.283 136.04119 59.178609 137.79305 60.599609 139.49805 C 61.997609 141.23705 63.573922 143.19594 65.294922 145.33594 C 67.185922 147.32294 69.314781 149.41959 71.550781 151.68359 C 73.636781 153.37859 75.798859 155.26016 78.130859 157.03516 L 77.095703 158.39648 C 77.188703 158.26648 77.085875 158.56789 77.046875 158.71289 L 76.84375 159.29102 C 76.68875 159.69702 76.518219 160.11787 76.324219 160.54688 C 75.944219 161.39787 75.494859 162.26505 75.005859 163.12305 C 74.031859 164.84505 72.926063 166.57084 71.664062 168.21484 C 69.162063 171.52684 66.105375 174.5498 62.734375 177.3418 C 59.326375 180.0818 55.567344 182.56036 51.527344 184.69336 C 50.525344 185.23836 49.490078 185.73014 48.455078 186.24414 C 47.425078 186.77614 46.355828 187.20241 45.298828 187.69141 C 43.179828 188.59641 40.979 189.48525 38.75 190.28125 C 41.11 190.28625 43.475906 190.27741 45.878906 190.06641 C 48.257906 189.85141 50.669875 189.60762 53.046875 189.14062 C 57.829875 188.29563 62.590797 186.91527 67.216797 184.94727 C 69.519797 183.94727 71.821297 182.85283 74.029297 181.54883 C 76.243297 180.26183 78.389797 178.80512 80.466797 177.20312 C 82.535797 175.59813 84.542391 173.84409 86.400391 171.87109 C 87.332391 170.88609 88.236375 169.85509 89.109375 168.74609 C 89.432375 168.33909 89.746453 167.9027 90.064453 167.4707 C 90.860453 166.9837 91.694766 166.49381 92.509766 166.00781 C 92.759766 166.13081 93.000859 166.27658 93.255859 166.39258 C 94.945859 167.17758 96.640937 167.964 98.335938 168.75 C 99.850938 169.494 101.43995 170.021 103.00195 170.625 C 87.514957 183.731 77.179687 193.89062 77.179688 193.89062 C 77.179688 193.89062 69.563922 211.62984 39.919922 221.58984 C 15.535922 229.78184 39.724375 244.21938 68.984375 257.48438 C 78.939375 261.99437 81.072219 262.96277 81.449219 263.13477 L 81.509766 263.16016 C 81.689766 263.24416 82.379953 263.55327 84.626953 264.57227 C 84.913953 266.24827 85.250641 267.90172 85.681641 269.51172 C 86.083641 271.02172 86.558359 272.49622 87.068359 273.94922 L 87.070312 274.07812 C 85.956312 274.57912 84.844188 275.09672 83.742188 275.63672 C 75.263188 279.74872 67.189688 284.87398 62.304688 290.08398 C 61.073687 291.36098 60.080781 292.67181 59.300781 293.88281 C 58.519781 295.09681 58.015734 296.26342 57.677734 297.23242 C 57.411734 298.23342 57.227328 299.01536 57.236328 299.56836 C 57.204328 300.11036 57.185547 300.40234 57.185547 300.40234 C 57.185547 300.40234 57.234891 300.11903 57.337891 299.58203 C 57.396891 299.04703 57.677734 298.29486 58.052734 297.38086 C 58.497734 296.48886 59.111 295.44563 60 294.39062 C 60.887 293.32963 61.980594 292.2233 63.308594 291.1543 C 68.561594 286.8023 76.920438 282.86584 85.523438 279.96484 C 86.073437 279.77684 86.627687 279.60569 87.179688 279.42969 C 87.460688 285.74569 88.232438 292.01341 89.398438 298.19141 C 84.749437 301.74841 80.737437 305.61427 78.148438 309.32227 C 77.194438 310.65327 76.465766 311.9702 75.884766 313.1582 C 75.336766 314.3702 74.979813 315.46967 74.757812 316.38867 C 74.579813 317.32067 74.462516 318.04864 74.478516 318.55664 C 74.456516 319.05264 74.447266 319.32227 74.447266 319.32227 C 74.447266 319.32227 74.495031 319.0565 74.582031 318.5625 C 74.636031 318.0705 74.852531 317.37481 75.144531 316.50781 C 75.481531 315.64581 75.969578 314.65117 76.642578 313.57617 C 77.354578 312.51617 78.209063 311.37314 79.289062 310.24414 C 81.963063 307.35014 85.790484 304.47163 90.146484 301.89062 C 90.289484 302.55163 90.392922 303.21809 90.544922 303.87109 C 92.578922 312.54409 95.656031 320.87952 99.207031 328.97852 C 97.959031 330.74152 96.851969 332.46061 95.917969 334.09961 C 94.975969 335.71161 94.236766 337.25948 93.634766 338.64648 C 93.052766 340.04148 92.657531 341.30252 92.394531 342.35352 C 92.184531 343.42152 92.02325 344.25003 92.03125 344.83203 C 92.00225 345.40403 91.988281 345.71289 91.988281 345.71289 C 91.988281 345.71289 92.036766 345.41075 92.134766 344.84375 C 92.192766 344.27875 92.454297 343.4728 92.779297 342.4668 C 93.161297 341.4768 93.688062 340.30639 94.414062 339.02539 C 95.158062 337.75039 96.046578 336.3503 97.142578 334.9043 C 98.034578 333.6953 99.070598 332.44569 100.18359 331.17969 C 100.50159 331.89269 100.80095 332.61136 101.12695 333.31836 C 105.42295 341.97536 110.4342 350.24536 116.0332 358.06836 C 115.9262 358.67236 115.8407 359.21256 115.8457 359.60156 C 115.8187 360.17356 115.80078 360.48242 115.80078 360.48242 C 115.80078 360.48242 115.85227 360.18128 115.94727 359.61328 C 115.98327 359.27928 116.09723 358.84828 116.24023 358.36328 C 122.65723 367.28728 129.85334 375.61969 137.77734 383.17969 C 152.62234 397.53669 169.53219 409.60131 187.61719 419.32031 C 205.72219 429.02831 224.9918 436.36714 244.7168 441.74414 C 264.4728 447.05914 284.71534 450.28953 305.02734 451.89453 C 325.34334 453.44653 345.76873 453.65502 366.05273 452.04102 C 368.58773 451.86302 371.13216 451.78953 373.66016 451.51953 L 381.24219 450.71289 C 386.29219 450.12089 391.36372 449.75656 396.38672 448.97656 C 406.43572 447.44956 416.50631 446.08466 426.44531 443.97266 C 446.42931 440.31466 466.05541 435.01452 485.56641 429.47852 C 465.94741 434.63652 446.24837 439.55731 426.23438 442.82031 C 416.27938 444.73831 406.20988 445.90747 396.17188 447.23047 C 391.15388 447.91447 386.08873 448.18087 381.05273 448.67188 L 373.49023 449.33203 C 370.97023 449.55003 368.43716 449.57508 365.91016 449.70508 C 345.70716 450.92108 325.4288 450.31948 305.3418 448.39648 C 285.2548 446.42448 265.32242 442.84228 245.98242 437.23828 C 226.67242 431.57128 207.91469 424.00455 190.42969 414.18555 C 172.96069 404.36355 156.77189 392.31255 142.71289 378.18555 C 141.60289 377.08455 140.53603 375.94345 139.45703 374.81445 C 139.88803 373.81545 140.42434 372.71786 141.15234 371.50586 C 142.00734 370.06786 143.03816 368.49056 144.28516 366.85156 C 147.78016 362.13556 152.76391 356.80266 158.37891 351.59766 C 170.01891 359.50866 182.11155 366.69941 194.56055 373.19141 C 192.92155 377.19641 191.57833 381.00961 190.61133 384.34961 C 189.59133 387.85161 189.005 390.84508 188.75 392.95508 C 188.654 394.01408 188.56713 394.83616 188.57812 395.41016 C 188.56713 395.97516 188.5625 396.27539 188.5625 396.27539 C 188.5625 396.27539 188.60555 395.97602 188.68555 395.41602 C 188.74055 394.85302 188.92948 394.04644 189.14648 393.02344 C 189.65048 390.98744 190.57723 388.1388 191.99023 384.8418 C 193.32223 381.7148 195.07695 378.17595 197.12695 374.50195 C 200.81195 376.38995 204.51786 378.23391 208.25586 380.00391 C 215.95086 383.63191 223.76016 387.01239 231.66016 390.15039 C 230.51316 393.87039 229.39494 397.32737 228.33594 400.23438 C 227.79994 401.61838 227.30905 402.88772 226.87305 404.01172 C 226.37505 405.11072 225.94208 406.06842 225.58008 406.85742 C 224.74008 408.38042 224.25977 409.24805 224.25977 409.24805 C 224.25977 409.24805 224.86569 408.4505 225.92969 407.0625 C 226.40269 406.3275 226.97963 405.43334 227.64062 404.40234 C 228.24363 403.33934 228.92597 402.14398 229.66797 400.83398 C 231.15897 398.08598 232.78547 394.79967 234.48047 391.26367 C 242.75747 394.47767 251.13923 397.40806 259.61523 400.03906 C 259.38923 400.61706 259.17194 401.15956 258.96094 401.60156 C 258.22994 402.99056 257.81055 403.78711 257.81055 403.78711 C 257.81055 403.78711 258.35755 403.06373 259.31055 401.80273 C 259.61155 401.36573 259.94016 400.82414 260.28516 400.24414 C 261.80116 400.71014 263.31594 401.18572 264.83594 401.63672 C 271.88394 403.71972 278.99534 405.60039 286.15234 407.27539 C 285.31834 409.90439 284.50466 412.35205 283.72266 414.49805 C 283.18766 415.88305 282.69663 417.15039 282.26562 418.27539 C 281.76463 419.37339 281.3287 420.32814 280.9707 421.11914 C 280.1287 422.64014 279.65039 423.50781 279.65039 423.50781 C 279.65039 423.50781 280.25836 422.71727 281.31836 421.32227 C 281.79436 420.58927 282.37025 419.69502 283.03125 418.66602 C 283.63725 417.60302 284.31759 416.40556 285.05859 415.10156 C 286.21259 412.97056 287.45328 410.50828 288.73828 407.86328 C 301.82028 410.83028 315.06386 413.08931 328.38086 414.57031 C 328.16886 415.03231 328.04297 415.30859 328.04297 415.30859 C 328.04297 415.30859 328.23097 415.03889 328.54297 414.58789 C 344.64097 416.37389 360.85039 417.02963 377.02539 416.39062 C 377.09439 416.78762 377.17542 417.20089 377.23242 417.58789 C 377.72842 420.78789 377.77897 423.51809 377.41797 425.37109 C 377.21897 426.28809 377.02567 427.02594 376.76367 427.46094 C 376.53367 427.92194 376.41211 428.16992 376.41211 428.16992 C 376.41211 428.16992 376.56647 427.93867 376.85547 427.51367 C 377.18247 427.10667 377.47559 426.39161 377.80859 425.47461 C 378.43559 423.61561 378.75941 420.8068 378.69141 417.4668 C 378.68641 417.0948 378.65948 416.69159 378.64648 416.30859 C 380.57248 416.22159 382.49878 416.13377 384.42578 416.00977 C 395.15778 415.34277 405.85241 414.06108 416.44141 412.20508 C 416.48441 412.47008 416.54108 412.74791 416.58008 413.00391 C 417.07608 416.20391 417.12663 418.93506 416.76562 420.78906 C 416.56662 421.70506 416.37433 422.44286 416.11133 422.88086 C 415.88333 423.33986 415.75977 423.58594 415.75977 423.58594 C 415.75977 423.58594 415.91512 423.35669 416.20312 422.92969 C 416.52913 422.52169 416.82225 421.80762 417.15625 420.89062 C 417.78225 419.03163 418.10806 416.22281 418.03906 412.88281 C 418.03506 412.57381 418.011 412.23888 418 411.92188 C 432.975 409.20788 447.7203 405.3078 462.0293 400.2168 C 463.6543 402.3668 465.12698 404.45534 466.33398 406.40234 C 467.30798 408.00034 468.11975 409.50444 468.71875 410.89844 C 469.28975 412.28644 469.71073 413.553 469.80273 414.625 C 469.87073 415.164 469.91327 415.64664 469.82227 416.05664 C 469.76527 416.47764 469.76156 416.84961 469.60156 417.09961 C 469.36256 417.64061 469.23438 417.92773 469.23438 417.92773 C 469.23438 417.92773 469.39627 417.65358 469.69727 417.14258 C 469.89227 416.89358 469.94083 416.52266 470.04883 416.09766 C 470.19383 415.67466 470.20908 415.16847 470.20508 414.60547 C 470.23608 413.46747 469.9553 412.11147 469.5293 410.60547 C 469.0813 409.09947 468.42805 407.45694 467.62305 405.71094 C 466.69505 403.72794 465.55225 401.61192 464.28125 399.41992 C 475.14925 395.44892 485.74891 390.77764 496.00391 385.43164 C 499.08991 387.42464 501.90764 389.38453 504.30664 391.26953 C 507.49764 393.77953 509.94238 396.20831 510.98438 398.32031 C 511.49638 399.37231 511.55762 400.3305 511.39062 400.9375 C 511.26263 401.4775 511.07302 401.70739 511.04102 401.77539 C 511.12102 401.67539 511.32623 401.4327 511.49023 400.9707 C 511.73123 400.3647 511.77547 399.32902 511.35547 398.16602 C 510.49747 395.82702 508.24044 393.06987 505.27344 390.17188 C 503.29344 388.23987 500.97208 386.22044 498.45508 384.14844 C 498.86608 383.92744 499.28631 383.72095 499.69531 383.50195 C 499.27631 383.71395 498.85264 383.91586 498.43164 384.13086 C 493.36564 379.96886 487.4438 375.60789 481.4668 371.33789 C 472.5858 365.00589 463.57517 358.88312 457.07617 354.07812 C 457.91117 353.65713 458.68534 353.25219 459.40234 352.86719 C 467.29434 355.58119 476.7042 358.45739 486.1582 361.27539 C 497.7022 364.70639 509.24066 368.03755 517.84766 370.68555 C 522.15166 372.00655 525.71922 373.16253 528.19922 374.01953 C 530.68222 374.87753 532.07617 375.43945 532.07617 375.43945 C 532.07617 375.43945 530.77745 374.6808 528.43945 373.4668 C 526.10045 372.2458 522.72453 370.58063 518.64453 368.64062 C 510.48953 364.75462 499.53148 359.76998 488.64648 354.70898 C 480.19648 350.77698 471.7838 346.78652 464.8418 343.22852 C 464.6268 341.89352 464.40292 340.54483 464.16992 339.17383 C 473.40292 339.86083 484.4602 340.42198 495.5332 341.08398 C 508.7122 341.87098 521.86837 342.77052 531.60938 344.22852 C 536.46237 344.97252 540.51141 345.80944 543.06641 347.02344 C 544.34441 347.60044 545.22577 348.39892 545.25977 349.16992 C 545.27477 349.90992 544.89917 350.25172 544.95117 350.26172 C 544.89917 350.24272 545.31802 349.97897 545.41602 349.16797 C 545.49402 348.29197 544.61019 347.26605 543.36719 346.49805 C 540.85919 344.87905 536.87408 343.48894 532.08008 342.08594 C 526.58008 340.49894 519.94452 338.94845 512.85352 337.43945 C 510.30052 328.23845 507.31317 319.20477 504.07617 310.25977 C 506.81017 309.76877 509.42216 309.19475 511.78516 308.46875 C 514.63816 307.66575 517.15198 306.60047 519.33398 305.60547 C 520.39898 305.04647 521.39497 304.52572 522.29297 304.01172 C 523.16097 303.43772 523.96592 302.94017 524.66992 302.45117 C 526.02692 301.39417 527.06941 300.55881 527.69141 299.88281 C 528.34341 299.24681 528.69141 298.9082 528.69141 298.9082 C 528.69141 298.9082 528.30589 299.20267 527.58789 299.76367 C 526.90189 300.35667 525.7748 301.06741 524.3418 301.94141 C 523.5928 302.31841 522.76628 302.74141 521.86328 303.19141 C 520.93728 303.59641 519.91698 303.98911 518.83398 304.41211 C 516.61898 305.13011 514.10439 305.87594 511.27539 306.33594 C 508.72539 306.81094 505.92042 307.09967 502.98242 307.26367 C 502.66442 306.40167 502.36106 305.53664 502.03906 304.68164 C 498.35006 294.76764 494.24719 285.01252 489.86719 275.35352 C 494.95619 275.11152 499.721 274.5588 503.875 273.5918 C 506.748 272.9858 509.30267 272.08652 511.51367 271.22852 C 512.59467 270.71952 513.61348 270.27102 514.52148 269.79102 C 515.40248 269.25702 516.22655 268.80298 516.93555 268.33398 C 518.30955 267.32998 519.35761 266.52056 519.97461 265.85156 C 520.62361 265.22756 520.9707 264.89648 520.9707 264.89648 C 520.9707 264.89648 520.58909 265.18452 519.87109 265.72852 C 519.19409 266.31852 518.06405 266.99341 516.62305 267.81641 C 515.88305 268.18941 515.02991 268.54103 514.12891 268.95703 C 513.19891 269.31603 512.16198 269.63981 511.08398 270.00781 C 508.85498 270.58581 506.33077 271.16078 503.50977 271.42578 C 498.93877 271.94878 493.66822 271.88778 488.07422 271.42578 C 485.81122 266.46278 483.38969 261.57831 480.92969 256.69531 C 478.29569 251.46731 475.57183 246.27873 472.67383 241.17773 C 469.72483 235.81473 466.61644 230.52883 463.39844 225.29883 C 464.57944 225.15983 465.76755 225.02348 466.93555 224.89648 C 470.75755 224.31148 474.51056 223.77269 478.10156 222.92969 C 479.90056 222.57469 481.66028 222.1732 483.36328 221.6582 C 485.06428 221.1592 486.74489 220.76994 488.33789 220.21094 C 489.92289 219.64194 491.46698 219.08678 492.95898 218.55078 C 494.44898 218.02578 495.81525 217.28703 497.15625 216.70703 C 499.86925 215.60003 502.10583 214.02953 504.17383 212.89453 C 506.13083 211.54153 507.76723 210.27772 509.11523 209.26172 C 511.56223 206.92872 512.95898 205.59375 512.95898 205.59375 C 512.95898 205.59375 511.429 206.75425 508.75 208.78125 C 507.305 209.63125 505.56725 210.68253 503.53125 211.76953 C 501.37425 212.64753 499.08703 213.90188 496.33203 214.67188 C 494.97003 215.08388 493.60642 215.64147 492.10742 215.98047 C 490.62042 216.32947 489.082 216.6915 487.5 217.0625 C 485.921 217.4225 484.24727 217.61034 482.57227 217.90234 C 480.90027 218.20934 479.16748 218.39897 477.39648 218.54297 C 473.88248 218.95897 470.20609 219.05917 466.49609 219.20117 C 464.19109 219.18717 461.87002 219.18734 459.54102 219.15234 C 457.80102 216.42534 456.03333 213.70895 454.23633 211.00195 C 453.86433 210.44995 453.4727 209.90461 453.0957 209.34961 C 453.8547 209.05461 454.60409 208.76098 455.37109 208.45898 C 457.13409 207.85498 458.73836 206.82272 460.44336 206.01172 C 463.87736 204.41072 466.99922 202.1773 470.19922 200.1543 C 473.21022 197.8513 476.26517 195.63923 478.95117 193.11523 C 481.77217 190.74023 484.23055 188.1023 486.68555 185.6543 C 489.02555 183.0973 491.30241 180.65452 493.31641 178.22852 C 495.38741 175.84852 497.23742 173.53197 498.98242 171.41797 C 502.42242 167.15997 505.29161 163.63613 507.34961 161.20312 C 509.44661 158.80412 510.64648 157.43164 510.64648 157.43164 C 510.64648 157.43164 509.28906 158.65311 506.91406 160.78711 C 504.57306 162.96011 501.28428 166.12764 497.36328 169.93164 C 495.38828 171.81364 493.2787 173.88575 490.9707 175.96875 C 488.7067 178.11075 486.20344 180.2152 483.64844 182.4082 C 480.99644 184.4762 478.34402 186.71891 475.41602 188.62891 C 472.59802 190.70491 469.50119 192.40445 466.49219 194.18945 C 463.32619 195.67745 460.27716 197.36825 457.03516 198.40625 C 455.42416 198.94025 453.91716 199.70316 452.28516 200.03516 C 450.69016 200.44516 449.1115 200.851 447.5625 201.25 L 447.44727 201.2793 C 444.68227 197.4193 441.85364 193.58741 438.93164 189.81641 C 441.02764 188.56641 443.06409 187.19353 445.12109 185.89453 C 448.13209 183.58853 451.18505 181.37947 453.87305 178.85547 C 456.69105 176.47847 459.14947 173.83858 461.60547 171.39258 C 463.94547 168.83658 466.22333 166.39475 468.23633 163.96875 C 470.30833 161.58775 472.15834 159.27125 473.90234 157.15625 C 477.34334 152.90025 480.21348 149.37436 482.27148 146.94336 C 484.36648 144.54336 485.56641 143.17187 485.56641 143.17188 C 485.56641 143.17188 484.21098 144.39039 481.83398 146.52539 C 479.49198 148.69839 476.20516 151.86787 472.28516 155.67188 C 470.31016 157.55388 468.19863 159.62698 465.89062 161.70898 C 463.62662 163.84898 461.12436 165.95348 458.56836 168.14648 C 455.91736 170.21548 453.26498 172.45914 450.33398 174.36914 C 447.51898 176.44514 444.42111 178.14369 441.41211 179.92969 C 438.87511 181.11969 436.40642 182.42845 433.85742 183.43945 C 433.55342 183.06945 433.26494 182.69331 432.96094 182.32031 C 426.57194 174.56531 419.84008 166.99972 412.70508 159.76172 C 415.22008 156.12872 417.5005 152.45053 419.5625 148.89453 C 423.0075 142.94653 425.96316 137.33886 428.66016 132.63086 C 431.34216 127.91786 433.79345 124.13261 435.68945 121.59961 C 436.63745 120.33261 437.41538 119.36047 437.98438 118.73047 C 438.54037 118.08447 438.83398 117.74023 438.83398 117.74023 C 438.83398 117.74023 438.50009 118.04509 437.87109 118.62109 C 437.22709 119.18309 436.33452 120.05694 435.22852 121.21094 C 433.02252 123.51694 430.08427 127.03069 426.82227 131.42969 C 423.55327 135.81069 419.92242 141.0515 415.85742 146.4375 C 413.56542 149.4805 411.10319 152.56211 408.49219 155.53711 C 399.83519 147.09911 390.71586 139.00764 380.88086 131.68164 C 379.94386 130.96064 378.96667 130.28022 378.01367 129.57422 L 378.63281 129.04102 L 380.87891 126.87891 C 382.35591 125.42991 383.88914 124.05525 385.24414 122.53125 C 386.62714 121.03525 388.02752 119.58266 389.35352 118.09766 C 390.63852 116.58466 391.9063 115.08814 393.1543 113.61914 C 395.5753 110.62514 397.89403 107.72572 399.95703 104.88672 C 402.04703 102.06572 403.98217 99.382375 405.70117 96.859375 C 409.19017 91.850375 411.97578 87.607719 413.92578 84.636719 C 415.87078 81.666719 416.98437 79.96875 416.98438 79.96875 C 416.98438 79.96875 415.69541 81.539203 413.44141 84.283203 C 411.18341 87.019203 407.95475 90.932672 403.96875 95.513672 C 401.99775 97.820672 399.80122 100.26159 397.44922 102.80859 C 395.11922 105.37559 392.54681 107.96223 389.88281 110.61523 C 388.52081 111.90423 387.13833 113.21397 385.73633 114.54297 C 384.28533 115.80297 382.81598 117.08019 381.33398 118.36719 C 379.88498 119.68419 378.27747 120.82973 376.73047 122.05273 L 374.39062 123.86523 L 372.20312 125.36719 C 370.07912 123.88119 367.94511 122.40994 365.78711 120.96094 C 362.66211 118.96594 359.48625 117.03839 356.28125 115.15039 C 357.61625 113.13239 358.88791 111.09691 360.00391 109.00391 C 362.15691 105.39391 363.82955 101.63522 365.56055 98.074219 C 367.09455 94.428219 368.65714 90.948734 369.86914 87.552734 C 371.18114 84.193734 372.29111 80.980813 373.28711 78.007812 C 374.33011 75.052813 375.15955 72.307719 375.93555 69.886719 C 376.71455 67.469719 377.35691 65.352469 377.87891 63.605469 C 378.93091 60.115469 379.53125 58.123047 379.53125 58.123047 C 379.53125 58.123047 378.72555 60.043438 377.31055 63.398438 C 376.61055 65.080437 375.7487 67.116594 374.7207 69.433594 C 373.6957 71.750594 372.58805 74.386219 371.24805 77.199219 C 369.95205 80.029219 368.52263 83.078375 366.89062 86.234375 C 365.35163 89.440375 363.46442 92.670016 361.60742 96.041016 C 359.56842 99.302016 357.58664 102.74141 355.18164 105.94141 C 353.78464 108.00541 352.22614 109.96958 350.61914 111.89258 C 350.34014 111.73758 350.07006 111.56806 349.78906 111.41406 C 344.32106 108.43006 338.77517 105.5578 333.07617 102.9668 C 330.11817 101.6398 327.12537 100.37788 324.10938 99.171875 C 324.64038 98.275875 325.16922 97.380422 325.69922 96.482422 C 327.58122 93.295422 329.46055 90.106703 331.31055 86.970703 C 333.03755 83.766703 334.73386 80.6145 336.38086 77.5625 C 337.19886 76.0415 338.00592 74.547031 338.79492 73.082031 C 339.55792 71.603031 340.24527 70.120219 340.94727 68.699219 C 342.33227 65.851219 343.64061 63.156875 344.84961 60.671875 C 346.10061 58.213875 347.05627 55.859734 347.94727 53.802734 C 348.83027 51.741734 349.60037 49.946797 350.23438 48.466797 C 351.50137 45.515797 352.22461 43.830078 352.22461 43.830078 C 352.22461 43.830078 351.30336 45.419125 349.69336 48.203125 C 348.88936 49.590125 347.91297 51.275984 346.79297 53.208984 C 345.67097 55.137984 344.45392 57.336 342.91992 59.625 C 341.43392 61.931 339.82409 64.435125 338.12109 67.078125 C 337.26509 68.393125 336.41623 69.763 335.49023 71.125 C 334.54223 72.476 333.57098 73.851906 332.58398 75.253906 C 330.61498 78.048906 328.57777 80.939 326.50977 83.875 C 324.33077 86.727 322.1173 89.621578 319.9043 92.517578 L 316.90039 96.439453 C 316.47539 96.285453 316.06081 96.111984 315.63281 95.958984 C 309.74481 93.794984 303.72069 91.990297 297.67969 90.279297 C 293.60169 89.239297 289.497 88.319656 285.375 87.472656 C 285.465 87.212656 285.53881 86.946453 285.63281 86.689453 C 286.11681 85.188453 286.64905 83.707625 287.24805 82.265625 C 287.84205 80.819625 288.36358 79.332688 289.01758 77.929688 C 290.30458 75.112688 291.57492 72.320141 293.04492 69.744141 C 294.38492 67.082141 295.99683 64.700422 297.42383 62.357422 C 298.89783 60.050422 300.48342 57.996531 301.85742 56.019531 C 303.32042 54.115531 304.74856 52.432391 305.97656 50.900391 C 307.17356 49.339391 308.4147 48.162609 309.3457 47.099609 C 311.2587 45.019609 312.35547 43.830078 312.35547 43.830078 C 312.35547 43.830078 311.10773 44.859062 308.92773 46.664062 C 307.85973 47.593063 306.44997 48.609047 305.04297 49.998047 C 303.60897 51.361047 301.94217 52.861078 300.20117 54.580078 C 298.54817 56.377078 296.64927 58.249484 294.82227 60.396484 C 293.04627 62.578484 291.04788 64.811422 289.29688 67.357422 C 287.41087 69.819422 285.69817 72.520203 283.95117 75.283203 C 283.06917 76.659203 282.32419 78.119734 281.49219 79.552734 C 280.65319 80.982734 279.88706 82.456219 279.16406 83.949219 C 278.79906 84.651219 278.47977 85.370031 278.13477 86.082031 C 272.33477 85.082031 266.51206 84.235984 260.66406 83.708984 C 258.29806 83.485984 255.93541 83.329266 253.56641 83.197266 C 253.57341 83.062266 253.57217 82.927063 253.57617 82.789062 C 253.84917 75.968063 254.71283 69.145813 256.17383 62.882812 C 257.62283 56.617812 259.67847 50.92225 261.98047 46.28125 C 264.26147 41.62425 266.77508 38.044734 268.70508 35.677734 C 269.66708 34.495734 270.46511 33.589 271.03711 33 C 271.60211 32.401 271.90234 32.082031 271.90234 32.082031 C 271.90234 32.082031 271.56269 32.360766 270.92969 32.884766 C 270.28669 33.401766 269.37672 34.201531 268.26172 35.269531 C 266.02472 37.398531 263.02008 40.703547 260.08008 45.185547 C 257.11508 49.649547 254.24502 55.273516 251.91602 61.603516 C 249.57702 67.925516 247.77875 74.934594 246.59375 82.058594 C 246.54675 82.334594 246.51766 82.614578 246.47266 82.892578 C 244.97266 82.848578 243.47356 82.812297 241.97656 82.779297 C 236.29456 82.699297 230.63505 82.891813 224.99805 83.257812 C 224.58605 82.180813 224.17478 81.098328 223.92578 79.986328 C 223.46678 78.256328 223.01064 76.537125 222.55664 74.828125 C 221.95664 71.371125 221.22339 67.922734 221.15039 64.552734 C 221.03539 62.870734 220.8873 61.201984 221.0293 59.583984 C 221.1283 57.966984 221.09988 56.3515 221.29688 54.8125 C 221.53788 53.2755 221.76909 51.779078 221.99609 50.330078 C 222.22409 48.877078 222.73245 47.549703 223.06445 46.220703 C 223.24945 45.560703 223.42942 44.91325 223.60742 44.28125 C 223.83142 43.66825 224.10184 43.089719 224.33984 42.511719 C 224.82884 41.357719 225.29056 40.262422 225.72656 39.232422 C 226.83656 37.301422 227.81741 35.595469 228.69141 34.230469 C 230.71241 31.683469 231.86719 30.226563 231.86719 30.226562 z M 138.93164 141.39648 C 139.26564 141.66148 139.60245 141.92659 139.93945 142.18359 C 138.02845 143.49659 136.14058 144.82702 134.26758 146.16602 C 133.10258 145.88702 131.93859 145.60642 130.80859 145.23242 C 131.71459 144.79742 132.61639 144.34492 133.52539 143.91992 C 135.32139 143.05092 137.12564 142.22548 138.93164 141.39648 z M 245.16602 147.57031 C 284.66808 147.56909 320.29884 174.93583 353.06055 219.95898 L 353.07422 219.99609 C 370.56627 237.10385 413.86523 324.00391 413.86523 324.00391 C 404.69823 326.75591 395.46198 328.97828 386.20898 330.73828 C 385.15198 330.93928 384.09697 331.14108 383.04297 331.33008 C 380.78197 331.73208 378.52181 332.11298 376.25781 332.45898 C 376.06981 332.48998 375.88141 332.52278 375.69141 332.55078 C 373.61541 332.86878 371.5398 333.15973 369.4668 333.42773 C 359.0658 334.77873 348.67914 335.5598 338.36914 335.8418 C 337.29714 335.8708 336.23016 335.88825 335.16016 335.90625 C 329.69416 336.00225 324.24784 335.96892 318.83984 335.79492 C 318.21284 335.77092 317.58884 335.73684 316.96484 335.71484 C 304.10784 335.22384 291.45491 333.9932 279.12891 332.1582 C 277.91691 331.9782 276.70114 331.79942 275.49414 331.60742 C 267.44314 330.32042 259.53731 328.78253 251.82031 327.01953 C 251.42031 326.92853 251.025 326.83423 250.625 326.74023 C 240.84 324.47023 231.36463 321.85131 222.26562 318.94531 C 220.91563 318.51131 219.56842 318.07386 218.23242 317.63086 C 213.83342 316.16786 209.52712 314.64459 205.32812 313.05859 C 204.77812 312.85259 204.22964 312.64159 203.68164 312.43359 C 197.38864 310.02059 191.32797 307.49038 185.54297 304.85938 C 184.69397 304.47337 183.86339 304.08145 183.02539 303.68945 C 179.77839 302.17745 176.61659 300.63631 173.55859 299.07031 C 171.83759 298.19231 170.14147 297.30802 168.48047 296.41602 C 167.24447 295.74802 166.03013 295.0763 164.82812 294.4043 C 164.29712 294.1043 163.77409 293.80586 163.24609 293.50586 C 158.85309 291.00286 154.70817 288.45958 150.82617 285.89258 C 150.20017 285.47758 149.57498 285.06053 148.95898 284.64453 C 146.18798 282.76453 143.56194 280.87742 141.08594 278.98242 C 140.80794 278.76942 140.52205 278.56161 140.24805 278.34961 C 131.78105 271.78861 125.16956 265.21984 120.72656 258.96484 C 120.29556 258.35884 119.88314 257.7543 119.49414 257.1543 C 117.74314 254.4603 116.40144 251.82602 115.52344 249.29102 C 115.52344 249.29102 121 243.69041 125.375 236.44141 C 125.62 236.03341 125.85475 235.61041 126.09375 235.19141 C 127.16975 233.30241 128.14778 231.32741 128.92578 229.31641 C 129.01978 229.07741 129.09855 228.83566 129.18555 228.59766 C 129.52255 227.66366 129.80806 226.72897 130.03906 225.79297 C 130.17506 225.24697 130.28681 224.70516 130.38281 224.16016 C 130.47481 223.63616 130.57695 223.10498 130.62695 222.58398 C 130.76795 221.06898 131.51047 219.2078 132.73047 217.0918 C 132.99547 216.6338 133.28866 216.15869 133.59766 215.67969 C 143.57666 200.11269 176.34422 172.69356 196.94922 160.72656 C 196.94367 160.73277 196.93914 160.73988 196.93359 160.74609 L 196.95508 160.72461 C 213.65816 151.76061 229.70869 147.57079 245.16602 147.57031 z M 122.72266 149.23242 C 122.82066 149.27842 122.91177 149.33881 123.00977 149.38281 C 124.40477 150.02881 125.80612 150.67908 127.20312 151.33008 C 121.26212 155.76608 115.59775 160.22753 110.34375 164.51953 C 108.82775 164.25153 107.33417 163.87305 105.82617 163.49805 C 104.14717 163.04405 102.39795 162.73525 100.75195 162.15625 C 100.38195 162.03625 100.01157 161.91783 99.642578 161.79883 C 101.06357 160.97483 102.48248 160.14394 103.89648 159.33594 C 108.77048 156.57094 113.71691 153.94512 118.62891 151.32812 C 119.98691 150.61212 121.35766 149.92842 122.72266 149.23242 z M 102.46289 228.22266 L 104.35742 228.51953 C 104.35742 228.51953 104.87928 229.24147 105.48828 230.35547 C 107.07028 233.26147 109.24342 238.92644 104.35742 242.14844 C 97.597426 246.60944 84.880859 242.01758 84.880859 242.01758 L 85.152344 235.52539 C 85.358344 230.53239 95.46291 228.90397 100.12891 228.41797 C 101.53091 228.26997 102.46289 228.22266 102.46289 228.22266 z M 432.5293 237.23828 C 438.2853 243.69628 443.95327 250.26994 449.57227 256.96094 L 456.83594 265.81836 C 452.20894 264.65736 447.6702 263.40658 443.2832 262.14258 C 440.0922 253.85158 436.5193 245.51428 432.5293 237.23828 z M 95.041016 269.29688 C 95.609016 269.55287 96.232563 269.83423 96.851562 270.11523 C 96.379563 270.28423 95.901781 270.46653 95.425781 270.64453 C 95.280781 270.19353 95.171016 269.74387 95.041016 269.29688 z M 446.95703 272.13477 C 451.60203 272.85377 456.36311 273.52517 461.16211 274.07617 C 462.01211 274.17017 462.85994 274.24503 463.71094 274.33203 L 470.82812 283.2832 C 476.98813 291.1262 483.10723 299.07241 489.24023 307.06641 C 482.86723 306.57241 476.22272 305.65573 469.63672 304.30273 C 464.95272 303.35973 460.33075 302.228 455.84375 301 C 453.34775 291.648 450.41103 281.96677 446.95703 272.13477 z M 100.78516 275.8457 C 102.42616 278.5607 105.04495 282.24973 109.12695 286.67773 C 107.56395 287.35573 105.97891 288.08763 104.37891 288.89062 C 102.61691 286.09963 100.93675 283.26852 99.46875 280.35352 C 98.82975 279.09752 98.236828 277.81544 97.673828 276.52344 C 98.725828 276.27944 99.76616 276.0537 100.78516 275.8457 z M 114.54102 292.125 C 117.83202 295.209 121.76322 298.54441 126.44922 302.06641 C 123.94422 303.83441 121.41678 305.78858 118.92578 307.89258 C 117.87978 306.71758 116.81873 305.55056 115.80273 304.35156 C 112.97573 301.01856 110.30487 297.56748 107.79688 294.02148 C 110.13088 293.26348 112.40702 292.624 114.54102 292.125 z M 99.587891 297.12891 C 102.70989 301.52191 106.07852 305.70703 109.60352 309.70703 C 110.68452 310.93703 111.80211 312.1195 112.91211 313.3125 C 110.14911 315.9655 107.52414 318.731 105.11914 321.5 C 102.64514 315.105 100.52956 308.59216 99.101562 301.91016 C 98.806562 300.50716 98.582031 299.08578 98.332031 297.67578 C 98.752031 297.48478 99.168891 297.31191 99.587891 297.12891 z M 132.51367 306.42383 C 132.86167 306.66583 133.21822 306.90644 133.57422 307.14844 C 134.99722 308.11844 136.47567 309.09598 138.01367 310.08398 C 141.61367 312.39898 145.52416 314.76673 149.78516 317.17773 C 145.85616 319.99173 141.87675 323.26683 138.09375 326.79883 C 132.74075 322.10483 127.60509 317.19773 122.74609 312.05273 C 124.09109 311.17773 125.43367 310.35141 126.76367 309.56641 C 128.36867 308.61741 129.94342 307.73827 131.48242 306.94727 C 131.83042 306.76727 132.17167 306.59583 132.51367 306.42383 z M 458.16211 310.07227 C 461.62111 310.54827 465.12839 310.95491 468.65039 311.25391 C 476.51939 311.95791 484.43898 312.1188 491.83398 311.7168 C 492.14498 311.6938 492.43809 311.65672 492.74609 311.63672 C 499.29409 320.19972 505.82667 328.83153 512.63867 337.39453 C 507.39467 336.28053 501.90711 335.18428 496.41211 334.11328 C 483.89011 331.67728 471.37356 329.36792 461.97656 327.29492 C 460.86956 321.76492 459.60311 316.00427 458.16211 310.07227 z M 116.10547 316.69531 C 121.38747 322.13631 126.93536 327.26953 132.69336 332.14453 C 127.30236 337.80653 122.66538 343.71914 119.73438 348.86914 C 119.62238 349.06114 119.53964 349.23778 119.43164 349.42578 C 115.37264 343.12578 111.72916 336.57136 108.53516 329.81836 C 107.80516 328.15136 107.11378 326.47011 106.42578 324.78711 C 109.40578 322.00711 112.68547 319.25831 116.10547 316.69531 z M 156.75195 320.98242 C 161.33295 323.40542 166.27589 325.86194 171.58789 328.33594 C 172.78589 328.89794 174.00028 329.45563 175.23828 330.01562 C 174.64728 330.49962 174.05203 330.99395 173.45703 331.50195 C 169.67003 334.71095 165.86942 338.26252 162.23242 341.97852 C 161.49642 342.73552 160.7805 343.49967 160.0625 344.26367 C 159.9445 344.18067 159.82108 344.09867 159.70508 344.01367 C 153.59708 339.56267 147.61956 334.92369 141.85156 330.05469 C 146.85456 326.44469 152.04795 323.28642 156.75195 320.98242 z M 207.28906 324.00391 C 207.28906 324.00391 208.00384 324.51833 209.33984 325.48633 C 209.99384 325.99433 210.85972 326.53158 211.88672 327.14258 C 212.89872 327.77758 214.07894 328.48397 215.46094 329.16797 C 216.81194 329.90397 218.34097 330.65648 220.04297 331.39648 C 221.27397 331.99348 222.63483 332.55014 224.04883 333.11914 C 224.55683 333.32214 225.04827 333.52138 225.57227 333.73438 C 227.20227 334.37437 228.95148 335.01453 230.77148 335.64453 C 233.40648 336.56053 236.21194 337.4727 239.21094 338.3457 C 259.44994 344.3547 287.41314 348.81717 315.49414 349.95117 C 322.51414 350.20317 329.53927 350.34236 336.44727 350.19336 C 343.35827 350.12236 350.14712 349.72444 356.70312 349.27344 C 363.25412 348.72944 369.57039 348.07222 375.52539 347.19922 C 381.48139 346.34522 387.08322 345.372 392.19922 344.25 C 397.33322 343.188 401.98136 341.97817 406.06836 340.82617 C 408.10336 340.22317 410.00562 339.65477 411.76562 339.13477 C 413.50263 338.53977 415.09811 337.99095 416.53711 337.50195 C 419.43911 336.57195 421.61062 335.57258 423.14062 335.01758 C 424.65362 334.42058 425.46289 334.09961 425.46289 334.09961 L 427.23242 338.4375 C 427.23242 338.4375 426.39722 338.74508 424.82422 339.33008 C 423.23722 339.87008 420.97242 340.84809 417.98242 341.74609 C 416.49342 342.21509 414.84473 342.74345 413.05273 343.31445 C 411.23973 343.81245 409.2815 344.35083 407.1875 344.92383 C 402.9875 346.01483 398.22442 347.14905 392.98242 348.12305 C 387.75442 349.14905 382.04709 350.02158 375.99609 350.76758 C 369.94709 351.52158 363.54497 352.05584 356.91797 352.46484 C 350.28597 352.78984 343.43084 353.04066 336.46484 352.97266 C 329.49984 352.97466 322.43205 352.68906 315.37305 352.28906 C 287.14905 350.56306 259.18205 345.49897 238.99805 339.04297 C 236.07705 338.12397 233.34053 337.18452 230.76953 336.22852 C 228.88953 335.53352 227.08506 334.83572 225.41406 334.13672 C 224.77906 333.86672 224.18512 333.60766 223.57812 333.34766 C 222.29112 332.79866 221.04406 332.25169 219.91406 331.67969 C 218.22106 330.89969 216.70319 330.1118 215.36719 329.3418 C 213.99819 328.6278 212.82727 327.89928 211.82227 327.23828 C 210.80527 326.60128 209.95055 326.05439 209.31055 325.52539 C 207.99155 324.53139 207.28906 324.00391 207.28906 324.00391 z M 182.4043 333.17969 C 191.0303 336.88269 200.52652 340.6045 210.97852 344.3125 C 207.34552 348.8255 203.96642 354.15653 200.98242 359.64453 C 199.55942 362.25753 198.24425 364.9082 197.03125 367.5332 C 185.55325 361.2392 174.41661 354.34956 163.72461 346.85156 C 164.28361 346.37356 164.8383 345.88892 165.4043 345.41992 C 171.0323 340.75892 176.9623 336.48869 182.4043 333.17969 z M 135.78125 334.7207 C 142.10925 339.9157 148.64817 344.82972 155.32617 349.51172 C 150.35217 355.25172 146.02936 361.00897 143.06836 366.04297 C 141.98036 367.83497 141.09781 369.55452 140.38281 371.10352 C 139.81681 372.32952 139.4138 373.42855 139.0918 374.43555 C 132.1088 367.07055 125.80472 359.1042 120.26172 350.6582 C 120.49272 350.3312 120.70203 350.00588 120.95703 349.67188 C 124.45503 344.93887 129.78725 339.6307 135.78125 334.7207 z M 218.2793 346.84375 C 226.1313 349.51175 234.48672 352.16125 243.38672 354.78125 C 242.87872 355.88825 242.42128 357.03222 241.86328 358.32422 C 240.73728 361.20422 239.52405 364.5622 238.37305 368.1582 C 237.18805 371.7522 236.04939 375.58225 234.90039 379.40625 C 234.34039 381.28025 233.77952 383.15505 233.22852 384.99805 C 225.65052 381.80405 218.17055 378.38728 210.81055 374.73828 C 207.25255 372.96928 203.72661 371.13091 200.22461 369.25391 C 201.70861 366.85591 203.28412 364.45709 204.95312 362.12109 C 209.12013 356.23209 213.8613 350.71875 218.2793 346.84375 z M 251.88672 357.22656 C 256.85672 358.62556 261.98334 360.01167 267.27734 361.38867 C 266.82234 365.90967 266.15817 371.16748 265.32617 376.39648 C 264.78217 379.92248 264.11945 383.42227 263.43945 386.69727 C 262.73445 389.95227 261.97417 392.97048 261.20117 395.52148 C 252.94917 392.78548 244.793 389.7628 236.75 386.4668 C 237.587 384.6848 238.43239 382.87627 239.27539 381.07227 C 240.96739 377.47327 242.64487 373.87212 244.29688 370.57812 C 245.93187 367.26112 247.54961 364.25872 248.97461 361.76172 C 249.71661 360.57072 250.38928 359.38472 250.98828 358.51172 C 251.32628 358.04072 251.61272 357.61956 251.88672 357.22656 z M 448.51367 358.0918 C 449.75667 358.8738 451.08006 359.67811 452.53906 360.53711 C 459.75106 364.76911 469.41808 369.92206 478.95508 375.28906 C 484.89008 378.63606 490.77678 382.05591 495.92578 385.37891 C 485.53578 390.53891 474.83367 395.00186 463.88867 398.75586 C 460.75167 393.42986 456.81672 387.65252 452.76172 381.97852 C 447.65672 374.84652 442.3647 367.86783 438.2207 362.17383 C 442.0317 360.79083 445.47067 359.4128 448.51367 358.0918 z M 274.20508 363.15234 C 280.57808 364.75234 287.15609 366.33653 293.99609 367.89453 C 295.63009 368.26153 297.22294 368.57216 298.83594 368.91016 C 298.30394 370.05616 297.83291 371.24394 297.25391 372.58594 C 296.12691 375.46894 294.91567 378.82692 293.76367 382.41992 C 292.57867 386.01392 291.43906 389.84406 290.28906 393.66406 C 289.31906 396.90706 288.36192 400.13194 287.41992 403.21094 C 280.28792 401.39794 273.21289 399.37816 266.21289 397.16016 C 265.00589 396.78016 263.80942 396.37542 262.60742 395.98242 C 263.79542 393.55742 265.04344 390.67973 266.27344 387.55273 C 267.49844 384.37973 268.748 380.96377 269.875 377.50977 C 271.519 372.55177 273.00708 367.56034 274.20508 363.15234 z M 430.46094 364.82227 C 435.58894 370.47927 442.47014 377.59087 449.11914 384.92188 C 453.58614 389.84888 457.93744 394.86097 461.52344 399.54297 C 447.30444 404.27697 432.70764 407.83256 417.93164 410.22656 C 417.53564 403.94456 416.14952 396.30153 414.47852 388.76953 C 413.03152 382.22253 411.3718 375.73003 409.9668 370.20703 C 417.5198 368.60303 424.37394 366.75327 430.46094 364.82227 z M 307.84961 370.68555 C 313.86061 371.77255 319.73041 372.66842 325.44141 373.35742 C 326.50541 377.99642 327.80639 383.73983 328.77539 389.54883 C 329.06139 391.16683 329.29695 392.78477 329.50195 394.38477 C 329.74895 395.98677 329.85363 397.55889 330.01562 399.08789 C 330.15163 400.61689 330.17395 402.09086 330.25195 403.50586 C 330.20395 404.88886 330.23505 406.23722 330.12305 407.44922 C 329.95105 408.64422 329.93397 409.802 329.66797 410.75 C 329.61997 410.931 329.58697 411.09358 329.54297 411.26758 C 316.43797 409.58058 303.43452 407.12723 290.60352 403.99023 C 291.93352 401.18223 293.30206 398.25603 294.66406 395.33203 C 296.35606 391.73203 298.03645 388.13389 299.68945 384.83789 C 301.32145 381.51989 302.93923 378.52444 304.36523 376.02344 C 305.10623 374.83244 305.77991 373.64944 306.37891 372.77344 C 306.95691 371.96244 307.39461 371.29955 307.84961 370.68555 z M 402.77539 371.625 C 404.98239 377.1 407.59042 383.54103 409.98242 390.08203 C 412.60842 397.23403 414.95548 404.50062 416.14648 410.51562 C 405.59248 412.15163 394.95583 413.21688 384.29883 413.67188 C 382.36883 413.75887 380.43786 413.80847 378.50586 413.85547 C 378.03986 407.76247 376.71791 400.51352 375.12891 393.35352 C 373.71391 386.94152 372.09698 380.59253 370.70898 375.14453 C 382.38798 374.61853 393.11239 373.357 402.77539 371.625 z M 333.07422 374.19531 C 343.66322 375.19631 353.66175 375.526 363.09375 375.375 C 365.36375 381.021 368.12081 387.79206 370.63281 394.66406 C 373.09281 401.36406 375.28906 408.14002 376.53906 413.91602 C 361.08906 414.20202 345.64598 413.30705 330.33398 411.37305 C 330.39198 411.24505 330.43509 411.13191 330.49609 411.00391 C 330.94709 410.05591 331.16841 408.91827 331.56641 407.69727 C 331.90341 406.46027 332.11102 405.10302 332.41602 403.66602 C 332.59202 402.22802 332.84247 400.69419 332.98047 399.11719 C 333.09647 397.53719 333.26959 395.89347 333.30859 394.23047 C 333.38859 392.56447 333.44141 390.87355 333.44141 389.18555 C 333.49841 383.89655 333.28722 378.63331 333.07422 374.19531 z "
     style="fill:#0b0b09" />
  <path
     id="path866"
     d="M 245.16602 147.57031 C 229.70869 147.57079 213.65816 151.76061 196.95508 160.72461 L 196.93359 160.74609 C 163.98576 197.62084 168.47947 269.97222 227.77148 290.50977 C 303.35048 316.69277 348.19236 253.98023 353.06836 219.99023 C 353.07018 219.99201 353.0724 219.99431 353.07422 219.99609 L 353.06055 219.95898 C 320.29884 174.93583 284.66808 147.56909 245.16602 147.57031 z M 268.55664 175.41016 C 274.61844 175.63011 291.61228 182.39214 290.97266 184.52539 C 290.24066 186.96339 274.34219 210.51956 270.49219 212.22656 C 266.63919 213.93256 248.44812 208.32527 247.82812 203.44727 C 247.20812 198.57127 266.71094 175.74805 266.71094 175.74805 C 267.04744 175.4798 267.69067 175.37873 268.55664 175.41016 z M 298.04492 186.08789 L 308.19531 190.08398 L 286.77734 218.41992 L 276.09961 215.49414 L 298.04492 186.08789 z M 197.92578 208.85938 C 197.92578 208.85938 197.83125 209.57769 197.65625 210.92969 C 197.47625 212.26769 197.11156 214.27723 197.10156 216.74023 C 197.07656 217.97823 196.92633 219.30483 197.11133 220.79883 C 197.30033 222.27683 197.16064 223.8662 197.55664 225.5332 C 197.87664 227.1972 198.05945 228.97567 198.68945 230.76367 C 198.94345 231.65967 199.2027 232.58144 199.4707 233.52344 C 199.8347 234.43444 200.20589 235.36545 200.58789 236.31445 C 200.77389 236.78845 200.9633 237.26405 201.1543 237.74805 C 201.3933 238.20905 201.63877 238.67553 201.88477 239.14453 C 202.37877 240.07653 202.88453 241.02519 203.39453 241.99219 C 204.64653 243.80319 205.6917 245.79345 207.2207 247.56445 C 208.5617 249.45045 210.28088 251.12911 211.92188 252.91211 C 213.76687 254.51511 215.47316 256.31173 217.53516 257.80273 C 221.49116 260.94773 226.01166 263.65223 230.84766 265.86523 C 235.68666 268.03923 240.77594 269.95863 246.08594 271.01562 C 251.35794 272.13263 256.75298 272.90584 262.08398 272.83984 C 267.39898 272.79184 272.68506 272.48984 277.66406 271.33984 C 282.67706 270.36584 287.38359 268.76108 291.80859 267.08008 C 293.94159 266.06708 296.0675 265.15377 298.0625 264.13477 C 300.0115 263.03977 301.97509 262.07598 303.74609 260.95898 C 305.50409 259.80698 307.19002 258.70048 308.79102 257.64648 C 310.33002 256.48048 311.78811 255.37594 313.16211 254.33594 C 314.58911 253.34394 315.709 252.17475 316.875 251.21875 C 318.02 250.23075 319.07053 249.32581 320.01953 248.50781 C 323.55353 244.95981 325.69531 242.94922 325.69531 242.94922 C 325.69531 242.94922 324.22683 245.42952 321.42383 249.72852 C 319.82783 251.70652 318.07214 254.32831 315.61914 256.94531 C 314.38314 258.26031 313.06669 259.653 311.67969 261.125 C 310.18069 262.485 308.55128 263.86484 306.86328 265.33984 C 305.14528 266.76884 303.20286 268.06644 301.25586 269.52344 C 299.25586 270.89444 297.02383 272.05939 294.79883 273.40039 C 292.45583 274.48639 290.09002 275.76 287.54102 276.75 C 284.99002 277.732 282.35217 278.69942 279.57617 279.35742 C 274.08517 280.90042 268.18387 281.77983 262.17188 281.92383 C 256.14587 282.20283 250.03092 281.37639 244.04492 280.15039 C 238.05492 278.88439 232.27972 276.69853 226.88672 274.01953 C 221.45372 271.39553 216.57572 267.89828 212.26172 264.11328 C 210.05472 262.27328 208.12944 260.16905 206.27344 258.12305 C 204.57644 255.91905 202.84681 253.83787 201.50781 251.54688 C 200.01181 249.37287 198.93408 247.01659 197.83008 244.80859 C 197.39508 243.64359 196.96883 242.50186 196.54883 241.38086 C 196.34583 240.82086 196.14531 240.2658 195.94531 239.7168 C 195.80131 239.1468 195.65758 238.5873 195.51758 238.0293 C 195.23558 236.9233 194.96531 235.83539 194.69531 234.77539 C 194.55031 233.69039 194.40753 232.63452 194.26953 231.60352 C 193.92553 229.55852 194.03205 227.57209 193.99805 225.74609 C 194.08405 222.08509 194.5753 218.94592 195.2793 216.41992 C 195.7953 213.85292 196.66867 212.07597 197.13867 210.79297 C 197.65167 209.53097 197.92578 208.85938 197.92578 208.85938 z "
     style="fill:#4e9a06" />
</svg>
