<svg xmlns="http://www.w3.org/2000/svg" width="256" height="256" viewBox="0 0 67.733 67.733" xmlns:v="https://vecta.io/nano"><defs><linearGradient id="A" x1="0" y1="197" x2="0" y2="297" gradientUnits="userSpaceOnUse"><stop offset="0" stop-color="#5a8459"/><stop offset=".5" stop-color="#145012"/><stop offset="1" stop-color="#11440f"/></linearGradient><path id="B" d="M89.308 253.716q.137 1.715.137 3.326 0 5.693-1.337 8.196-.514.96-.754.96-.377 0-.103-2.195.343-2.778.034-5.796-1.235-9.808-3.429-29.492-.274-3.601-.926-10.391-.103-.377-.926-2.023-.206-.377 1.097-4.355.069-.24.206-.24.343 0 .96 1.475 1.063 2.263 2.092 4.527 1.646 3.498 1.646 4.355 0 .274-.206.274-.137 0-.446-.206-.857-.652-1.818-1.646-.069.96 1.406 12.62 1.783 13.889 2.366 20.61zm1.269 19.787q.206-.034.206.24 0 1.337-.994 2.298-.754.754-3.669 2.263-3.155 1.646-5.281 3.429-1.269 1.063-1.269.103 0-.343.377-.892.857-1.303.857-1.303.617-.72 1.989-1.406-.892-.034-1.852-.892-.926-.857-.926-1.646 0-1.543 2.16-3.909 2.16-2.366 3.704-2.366 1.44 0 1.44 1.818 0 .309-.343 1.269-.446 1.166-.892 1.132-.309-.24-.789-1.063-.274-.514-.892-.514-.583.069-2.538 1.955 2.023 2.023 3.566 2.023.926 0 5.144-2.538z"/></defs><g transform="matrix(.677333 0 0 .677333 0 -133.434667)"><rect width="100" height="100" y="197" ry="28.643" fill="url(#A)"/><g fill="#fff" stroke="#fff"><use href="#B"/><use href="#B" x="-70.351"/><path d="M74.31 255.752q0 .857-.309 2.229-.377 1.612-.789 1.612-.274 0-.514-.583-1.372-2.469-5.178-2.469-3.909 0-9.019 4.149-2.503 2.023-11.42 10.939-4.835 4.801-7.75 4.835-2.812.034-4.801-2.058-1.989-2.092-1.989-5.007 0-6.138 4.149-13.58.514-.926 1.097-.926.171 0 .171.24 0 .377-.48 1.303-3.772 7.476-3.498 12.517.206 3.738 2.949 3.738 3.978-.034 9.739-5.487 5.178-5.075 10.322-10.151 6.378-5.453 11.9-5.453 2.401 0 3.909 1.2 1.509 1.166 1.509 2.949zm5.548-34.621c0 4.915-1.715 7.373-5.144 7.373-1.097 0-2.023-.354-2.778-1.063-.091-.069-.64-.732-1.646-1.989-.32.663-.846 1.612-1.577 2.846-1.28 1.943-3.006 2.915-5.178 2.915-.846 0-1.635-.183-2.366-.549l.274 2.778c0 3.292-.606 5.715-1.818 7.27-2.515 3.224-6.081 6.207-10.699 8.95-5.35 3.155-10.288 4.732-14.815 4.732-4.435 0-7.979-1.52-10.631-4.561-2.401-2.766-3.486-5.978-3.258-9.636.229-3.589.743-6.539 1.543-8.848.229-.709.846-2.046 1.852-4.012.274-.549.56-.869.857-.96.274-.114.412.034.412.446 0 .32-.103.732-.309 1.235-1.577 3.818-2.366 7.316-2.366 10.494 0 3.246 1.303 5.956 3.909 8.127 2.286 1.875 4.744 2.846 7.373 2.915 3.224.069 7.03-.857 11.42-2.778 5.533-2.401 10.574-5.933 15.123-10.597-.091-1.669-.663-3.772-1.715-6.31l-1.715-4.115c-.023-.297.011-.663.103-1.097.183-.686.309-1.577.377-2.675 0-.16.103-.263.309-.309s.366-.011.48.103l1.989 3.464c1.372.594 2.641.892 3.807.892 2.743 0 4.87-1.76 6.378-5.281.937-2.172 1.68-3.338 2.229-3.498a.56.56 0 0 1 .171-.034c.09 0 .151.054.182.163-.081.858-.255 1.298-.397 2.05l-.367 2.005c.709.869 1.177 1.383 1.406 1.543.48.366 1.2.549 2.16.549 1.646 0 2.469-.309 2.469-.926 0-.229-.137-.606-.412-1.132s-.412-.926-.412-1.2c.114-.732.537-1.978 1.269-3.738.069-.114.149-.171.24-.171.274 0 .549.526.823 1.577.297 1.052.446 2.069.446 3.052z"/></g></g></svg>
