<svg xmlns="http://www.w3.org/2000/svg" viewBox="0 0 10.457 10.457" height="39.523" width="39.523"><rect height="10.457" width="10.457" ry="3.008" fill="#fcaf3e"/><path d="M6.476.358c-.241-.012-.548.038-.92.149-.222.069-.689.242-1.401.518l-.673.215c-.297.095-.499.187-.609.275-.21.172-.358.417-.443.737-.107.399-.055.74.155 1.021.047.063.291.285.731.667.411.356.703.679.875.967l-.341-.043c-.072-.012-.11-.008-.116.012-.009.033.094.136.308.307.24.196.381.328.424.397l.127.184c.017.004.042-.062.075-.199a2.2 2.2 0 0 1 .133-.419l.081-.181c-.021.012-.043.015-.067.009-.057-.015-.169-.188-.337-.518-.203-.4-.409-.703-.618-.909l-.886-.826c-.161-.157-.254-.337-.278-.54-.01-.07.141-.162.453-.274l1.441-.486c.949-.32 1.58-.438 1.892-.354.123.033.211.119.263.257a.75.75 0 0 1 .011.458c-.054.203-.159.448-.315.734l-.033.064a2.17 2.17 0 0 1-.251-.248l-.345.582c-.006.054.027.118.104.194l.503.461a.95.95 0 0 0 .368-.538c.019-.07-.048-.168-.199-.294l-.071-.061c.08-.122.162-.261.246-.425.155-.297.25-.514.287-.651.078-.293.089-.551.03-.773C7.019.588 6.89.443 6.694.39a1.04 1.04 0 0 0-.219-.032zm-.664 2.555zm.054 1.78c-.017-.004-.042.062-.075.199a2.19 2.19 0 0 1-.134.419l-.081.182c.021-.012.043-.016.067-.009.057.015.169.188.337.519.203.4.409.703.618.909l.886.826c.161.157.253.337.278.54.01.07-.141.162-.453.274l-1.441.486c-.949.32-1.58.438-1.892.355-.123-.033-.211-.119-.263-.258a.75.75 0 0 1-.011-.457c.054-.203.159-.448.314-.734l.033-.064c.113.1.205.188.251.248l.345-.582c.005-.054-.028-.118-.105-.193l-.502-.461a.95.95 0 0 0-.369.538c-.019.07.048.168.199.294l.071.062c-.08.121-.162.26-.246.425-.155.297-.25.514-.286.651-.078.293-.089.551-.031.773.061.238.19.383.387.435.263.07.643.031 1.139-.118.222-.069.689-.241 1.401-.518l.673-.215c.297-.095.499-.187.609-.275.21-.172.358-.418.444-.737.107-.399.055-.739-.155-1.02-.047-.063-.291-.285-.731-.667-.411-.356-.703-.679-.875-.967l.342.043c.072.012.11.009.115-.011.009-.033-.094-.136-.308-.307-.24-.196-.381-.328-.423-.397l-.127-.184zM4.645 7.544z"/></svg>
